<?xml version="1.0" encoding="UTF-8"?>
<!DOCTYPE svg PUBLIC "-//W3C//DTD SVG 1.1//EN" "http://www.w3.org/Graphics/SVG/1.1/DTD/svg11.dtd">
<svg xmlns="http://www.w3.org/2000/svg" version="1.1" width="996px" height="947px" style="shape-rendering:geometricPrecision; text-rendering:geometricPrecision; image-rendering:optimizeQuality; fill-rule:evenodd; clip-rule:evenodd" xmlns:xlink="http://www.w3.org/1999/xlink">
<g><path style="opacity:0.929" fill="#3a483b" d="M 579.5,46.5 C 585.5,46.5 591.5,46.5 597.5,46.5C 597.089,49.5534 596.423,52.5534 595.5,55.5C 596.362,65.047 601.362,68.7136 610.5,66.5C 611.659,73.5284 608.492,77.1951 601,77.5C 584.029,74.2822 576.862,63.9489 579.5,46.5 Z"/></g>
<g><path style="opacity:0.963" fill="#7a6044" d="M 568.5,47.5 C 566.549,71.7765 578.049,85.7765 603,89.5C 609.984,89.5062 616.151,87.3396 621.5,83C 631.613,83.138 640.113,86.9714 647,94.5C 651.751,102.719 651.251,110.552 645.5,118C 642.634,119.457 639.634,119.79 636.5,119C 641.539,108.577 638.372,102.077 627,99.5C 616.636,101.03 611.469,107.03 611.5,117.5C 588.589,111.427 569.755,99.0937 555,80.5C 545.132,63.6014 549.632,52.6014 568.5,47.5 Z"/></g>
<g><path style="opacity:0.984" fill="#7a6044" d="M 402.5,49.5 C 447.677,46.3853 485.844,61.0519 517,93.5C 543.992,129.77 547.325,168.103 527,208.5C 507.466,237.015 480.299,250.182 445.5,248C 409.497,243.75 385.331,224.583 373,190.5C 368.257,172.988 367.257,155.322 370,137.5C 337.9,150.772 310.4,170.438 287.5,196.5C 281.638,192.138 275.638,187.972 269.5,184C 277.184,179.986 284.017,174.819 290,168.5C 294.825,161.678 298.992,154.512 302.5,147C 328.987,127.426 358.32,113.759 390.5,106C 405.588,102.463 420.588,102.796 435.5,107C 446.142,110.228 454.975,116.061 462,124.5C 467.054,132.873 467.721,141.54 464,150.5C 460.117,154.463 456.451,154.13 453,149.5C 452.651,143.958 450.151,139.791 445.5,137C 425.835,131.082 413.002,137.915 407,157.5C 404.861,175.721 412.027,188.887 428.5,197C 453.694,206.081 474.194,199.914 490,178.5C 504.89,145.275 498.057,117.442 469.5,95C 453.307,84.3825 435.474,79.2158 416,79.5C 383.274,81.1858 352.774,90.3525 324.5,107C 316.915,111.709 309.415,116.542 302,121.5C 301.032,108.565 295.866,97.7313 286.5,89C 322.59,67.9152 361.257,54.7486 402.5,49.5 Z"/></g>
<g><path style="opacity:0.954" fill="#3a483b" d="M 630.5,53.5 C 650.514,57.1154 669.514,63.6154 687.5,73C 673.325,81.8785 671.992,92.2118 683.5,104C 690.35,107.101 695.85,105.601 700,99.5C 701.266,96.5338 702.433,93.5338 703.5,90.5C 707.771,93.5424 709.771,97.7091 709.5,103C 709.055,109.803 705.722,114.803 699.5,118C 686.181,123.878 674.347,121.711 664,111.5C 663.141,99.9523 658.641,90.119 650.5,82C 644.247,77.4157 637.247,74.9157 629.5,74.5C 631.702,67.6024 632.036,60.6024 630.5,53.5 Z"/></g>
<g><path style="opacity:0.966" fill="#3a493b" d="M 723.5,93.5 C 735.307,100.572 746.974,107.906 758.5,115.5C 747.324,125.132 745.658,136.132 753.5,148.5C 763.02,155.23 770.354,153.397 775.5,143C 778.289,141.336 781.123,141.17 784,142.5C 787.403,151.881 784.903,159.381 776.5,165C 760.739,174.122 746.239,172.288 733,159.5C 728.747,152.663 724.747,145.663 721,138.5C 717.658,133.992 713.825,129.992 709.5,126.5C 720.327,118.273 724.994,107.273 723.5,93.5 Z"/></g>
<g><path style="opacity:0.977" fill="#3a493b" d="M 258.5,105.5 C 272.697,105.19 280.531,112.19 282,126.5C 285.563,145.163 279.729,159.997 264.5,171C 260.159,174.172 255.492,176.839 250.5,179C 228.625,178.164 211.125,186.33 198,203.5C 193.73,211.041 189.73,218.707 186,226.5C 176.535,219.488 167.202,212.821 158,206.5C 163.613,197.888 169.613,189.554 176,181.5C 189.833,166.333 203.667,151.167 217.5,136C 245.643,148.544 258.143,139.377 255,108.5C 256.145,107.364 257.312,106.364 258.5,105.5 Z"/></g>
<g><path style="opacity:0.959" fill="#7a6044" d="M 660.5,118.5 C 667.302,127.065 676.302,131.565 687.5,132C 700.951,129.432 710.118,134.599 715,147.5C 716.954,154.514 716.954,161.514 715,168.5C 710.936,176.61 704.436,179.443 695.5,177C 694.833,176.333 694.167,175.667 693.5,175C 695.957,171.842 698.79,169.009 702,166.5C 705.045,155.607 700.878,149.607 689.5,148.5C 682.227,148.634 676.561,151.634 672.5,157.5C 663.786,150.118 654.786,143.118 645.5,136.5C 649.157,132.255 653.324,128.588 658,125.5C 659.136,123.257 659.97,120.924 660.5,118.5 Z"/></g>
<g><path style="opacity:0.972" fill="#3a483b" d="M 802.5,151.5 C 804.017,151.511 805.184,152.177 806,153.5C 815.027,164.873 824.527,175.873 834.5,186.5C 819.536,194.735 815.036,206.735 821,222.5C 829.815,231.609 839.815,232.943 851,226.5C 853.809,226.752 855.809,228.085 857,230.5C 855.513,247.972 845.846,256.305 828,255.5C 809.893,255.621 796.893,247.621 789,231.5C 785.793,219.801 782.46,208.134 779,196.5C 776.757,191.761 773.923,187.428 770.5,183.5C 776.981,181.265 783.314,178.432 789.5,175C 796.57,168.695 800.903,160.862 802.5,151.5 Z"/></g>
<g><path style="opacity:0.967" fill="#7a6044" d="M 726.5,169.5 C 727.962,170.458 729.295,171.624 730.5,173C 740.151,177.491 749.485,182.491 758.5,188C 773.276,201.362 775.443,216.529 765,233.5C 759.788,240.349 752.955,242.849 744.5,241C 741.848,239.847 739.848,238.013 738.5,235.5C 742.386,232.295 746.22,228.961 750,225.5C 753.021,208.52 745.854,201.353 728.5,204C 724.463,205.537 720.796,207.704 717.5,210.5C 713.044,204.421 708.71,198.254 704.5,192C 715.411,187.923 722.744,180.423 726.5,169.5 Z"/></g>
<g><path style="opacity:0.981" fill="#7a6044" d="M 233.5,200.5 C 238.844,200.334 244.177,200.501 249.5,201C 257.326,203.824 260.493,209.324 259,217.5C 253.416,220.039 248.249,223.206 243.5,227C 235.235,235.145 234.402,243.979 241,253.5C 244.217,256.38 247.05,259.547 249.5,263C 245.219,276.671 240.886,290.171 236.5,303.5C 222.916,298.125 208.916,295.792 194.5,296.5C 197.42,290.487 199.253,284.154 200,277.5C 200.333,263.5 200.667,249.5 201,235.5C 205.128,217.541 215.961,205.874 233.5,200.5 Z"/></g>
<g><path style="opacity:0.98" fill="#3a483b" d="M 150.5,232.5 C 166.688,234.513 176.855,243.513 181,259.5C 185.278,274.957 182.944,289.291 174,302.5C 165.303,310.863 156.969,319.53 149,328.5C 133.781,350.702 130.614,374.535 139.5,400C 128.258,397.155 116.758,395.321 105,394.5C 97.1069,395.139 89.2735,396.139 81.5,397.5C 85.765,357.773 96.265,319.773 113,283.5C 113.561,282.978 114.228,282.645 115,282.5C 126.816,286.462 137.149,284.128 146,275.5C 149.766,269.507 150.433,263.173 148,256.5C 145.277,253.443 142.944,250.11 141,246.5C 140.393,242.463 140.56,238.463 141.5,234.5C 144.689,234.142 147.689,233.475 150.5,232.5 Z"/></g>
<g><path style="opacity:0.978" fill="#7a6044" d="M 777.5,240.5 C 786.71,251.558 796.21,262.558 806,273.5C 820.499,296.668 816.999,316.834 795.5,334C 789.585,335.527 783.585,335.861 777.5,335C 772.706,333.133 771.206,329.633 773,324.5C 773.667,323.167 774.333,321.833 775,320.5C 788.469,310.771 788.969,300.271 776.5,289C 770.886,285.791 764.886,284.791 758.5,286C 755.117,287.243 751.784,288.243 748.5,289C 745.144,278.74 742.81,268.24 741.5,257.5C 755.125,258.573 766.625,254.239 776,244.5C 776.791,243.255 777.291,241.922 777.5,240.5 Z"/></g>
<g><path style="opacity:0.98" fill="#3a493b" d="M 878.5,244.5 C 885.768,257.984 892.935,271.65 900,285.5C 903.406,292.884 905.906,300.55 907.5,308.5C 879.821,309.662 868.988,323.662 875,350.5C 878.649,355.242 883.482,357.742 889.5,358C 895.748,358.188 901.915,358.688 908,359.5C 912.975,372.722 908.808,381.889 895.5,387C 878.176,392.06 862.51,389.06 848.5,378C 833.828,366.823 826.495,351.989 826.5,333.5C 827.124,325.425 828.29,317.425 830,309.5C 832.516,297.02 830.016,285.686 822.5,275.5C 843.053,275.824 860.22,268.491 874,253.5C 876.038,250.757 877.538,247.757 878.5,244.5 Z"/></g>
<g><path style="opacity:0.985" fill="#7a6044" d="M 189.5,330.5 C 194.179,330.334 198.845,330.501 203.5,331C 209.603,334.04 211.769,338.874 210,345.5C 207.394,350.435 204.394,355.102 201,359.5C 196.431,377.191 202.931,388.691 220.5,394C 226.87,394.706 233.203,394.539 239.5,393.5C 240.764,404.429 242.93,415.095 246,425.5C 228.677,432.164 214.177,442.664 202.5,457C 193.05,444.166 182.55,431.666 171,419.5C 155.194,399.664 152.194,377.997 162,354.5C 165.109,349.06 168.609,343.893 172.5,339C 177.98,335.593 183.647,332.76 189.5,330.5 Z"/></g>
<g><path style="opacity:0.981" fill="#7a6044" d="M 812.5,343.5 C 815.883,358.973 821.05,373.973 828,388.5C 836.815,416.051 829.648,438.217 806.5,455C 793.247,463.142 779.914,463.475 766.5,456C 757.957,444.751 760.623,437.751 774.5,435C 786.472,430.232 791.638,421.399 790,408.5C 784.722,395.682 775.056,389.349 761,389.5C 755.639,389.539 750.472,390.539 745.5,392.5C 745.167,392 744.833,391.5 744.5,391C 747.496,378.177 749.996,365.344 752,352.5C 761.856,359.087 772.689,361.254 784.5,359C 795.806,357.185 805.139,352.018 812.5,343.5 Z"/></g>
<g><path style="opacity:0.984" fill="#3a483b" d="M 929.5,392.5 C 930.268,393.263 930.768,394.263 931,395.5C 933.904,420.469 936.404,445.469 938.5,470.5C 919.848,466.116 904.015,470.783 891,484.5C 882.374,497.861 882.374,511.194 891,524.5C 898.942,530.379 907.775,534.545 917.5,537C 924.524,543.023 925.357,549.856 920,557.5C 906.872,569.741 891.706,572.908 874.5,567C 845.483,555.86 829.317,534.693 826,503.5C 825.117,493.398 825.783,483.398 828,473.5C 832.782,460.603 838.115,447.936 844,435.5C 847.098,423.934 848.265,412.267 847.5,400.5C 868.32,412.977 889.987,414.477 912.5,405C 919.193,402.128 924.86,397.961 929.5,392.5 Z"/></g>
<g><path style="opacity:0.989" fill="#3a493c" d="M 112.5,433.5 C 132.64,433.321 149.473,440.655 163,455.5C 169.787,462.738 174.787,471.071 178,480.5C 178.996,484.431 179.496,488.431 179.5,492.5C 164.472,549.568 178.805,597.735 222.5,637C 227.354,641.355 232.354,645.522 237.5,649.5C 218.55,659.599 201.717,672.599 187,688.5C 177.477,700.871 169.477,714.205 163,728.5C 118.205,673.359 90.705,610.359 80.5,539.5C 96.2961,538.527 108.463,531.527 117,518.5C 122.05,507.747 122.717,496.747 119,485.5C 112.607,477.548 104.774,471.381 95.5,467C 86.5479,458.362 86.2145,449.362 94.5,440C 100.135,436.513 106.135,434.346 112.5,433.5 Z"/></g>
<g><path style="opacity:0.989" fill="#7a6044" d="M 722.5,449.5 C 737.253,477.709 760.586,489.209 792.5,484C 796.882,483.032 801.049,481.532 805,479.5C 805.85,499.524 805.516,519.524 804,539.5C 800.782,573.128 784.616,598.294 755.5,615C 725.884,632.905 696.217,632.905 666.5,615C 659.275,609.788 654.442,602.955 652,594.5C 650.793,587.327 652.127,580.66 656,574.5C 659.434,571.578 663.434,570.244 668,570.5C 675.339,571.112 682.672,571.778 690,572.5C 709.293,570.873 720.626,560.539 724,541.5C 726.501,517.66 717.334,500.16 696.5,489C 702.5,478.002 709.667,467.835 718,458.5C 719.761,455.589 721.261,452.589 722.5,449.5 Z"/></g>
<g><path style="opacity:0.99" fill="#7a6044" d="M 250.5,483.5 C 266.842,480.525 274.842,487.192 274.5,503.5C 274.262,510.709 273.596,517.876 272.5,525C 275.229,545.73 286.895,558.063 307.5,562C 318.826,563.502 329.492,561.502 339.5,556C 343.874,552.821 348.207,549.654 352.5,546.5C 364.852,552.846 377.519,558.346 390.5,563C 376.301,581.57 367.134,602.404 363,625.5C 362.502,635.526 362.502,645.526 363,655.5C 348.006,646.725 331.84,641.558 314.5,640C 288.691,644.256 266.358,637.589 247.5,620C 225.837,599.672 213.837,574.672 211.5,545C 212.382,523.237 221.049,505.237 237.5,491C 241.602,487.954 245.935,485.454 250.5,483.5 Z"/></g>
<g><path style="opacity:0.991" fill="#7a6044" d="M 587.5,565.5 C 589.124,565.36 590.29,566.027 591,567.5C 598.438,620.939 628.604,653.105 681.5,664C 690.127,665.296 698.793,666.129 707.5,666.5C 704.687,674.135 701.854,681.802 699,689.5C 696.53,697.655 695.363,705.988 695.5,714.5C 659.127,706.538 623.794,709.705 589.5,724C 576.167,732 562.833,740 549.5,748C 500.592,757.28 460.425,742.78 429,704.5C 410.94,678.596 408.94,651.596 423,623.5C 429.363,614.07 438.196,610.237 449.5,612C 452.759,613.211 455.592,615.044 458,617.5C 464.173,627.175 469.84,637.175 475,647.5C 480.364,655.765 487.864,660.932 497.5,663C 532.68,664.836 553.514,648.336 560,613.5C 561.368,600.903 560.201,588.569 556.5,576.5C 567.142,573.399 577.476,569.732 587.5,565.5 Z"/></g>
<g><path style="opacity:0.988" fill="#3a493b" d="M 824.5,565.5 C 833.274,572.432 841.941,579.598 850.5,587C 870.686,600.289 892.353,606.122 915.5,604.5C 903.624,640.753 886.624,674.253 864.5,705C 858.62,701.923 852.287,699.59 845.5,698C 825.659,693.947 809.159,699.447 796,714.5C 790.491,723.933 789.158,733.933 792,744.5C 795,751.833 798,759.167 801,766.5C 802.723,772.246 801.223,776.746 796.5,780C 777.196,788.216 760.696,784.382 747,768.5C 727.997,740.133 724.331,709.8 736,677.5C 738.577,671.34 741.91,665.673 746,660.5C 757.922,652.123 769.755,643.623 781.5,635C 803.459,616.543 817.793,593.376 824.5,565.5 Z"/></g>
<g><path style="opacity:0.991" fill="#3a483b" d="M 299.5,677.5 C 322.582,676.149 344.248,680.982 364.5,692C 368.951,694.783 373.117,697.95 377,701.5C 410.349,755.939 459.183,783.605 523.5,784.5C 505.011,820.564 501.677,857.897 513.5,896.5C 443.666,898.235 377.333,884.068 314.5,854C 336.707,828.21 339.207,800.71 322,771.5C 303.927,753.138 283.76,750.304 261.5,763C 255.168,769.844 247.501,774.344 238.5,776.5C 227.975,775.828 221.142,770.495 218,760.5C 213.93,737.71 220.43,718.543 237.5,703C 255.578,688.125 276.245,679.625 299.5,677.5 Z"/></g>
<g><path style="opacity:0.988" fill="#3a483b" d="M 652.5,740.5 C 666.339,739.812 680.006,740.979 693.5,744C 698.966,761.764 706.466,778.597 716,794.5C 724.423,806.092 734.59,815.759 746.5,823.5C 742.012,827.243 737.346,830.743 732.5,834C 720.079,840.628 707.579,847.128 695,853.5C 689.136,847.301 682.969,841.468 676.5,836C 669.362,830.788 661.362,828.288 652.5,828.5C 642.634,828.467 633.3,830.634 624.5,835C 622,837.5 619.5,840 617,842.5C 611.806,851.554 607.139,860.888 603,870.5C 597.15,880.844 588.65,884.01 577.5,880C 555.481,859.247 550.314,834.747 562,806.5C 580.802,768.858 610.969,746.858 652.5,740.5 Z"/></g>
</svg>
