<?xml version="1.0" encoding="UTF-8" standalone="no"?>
<!-- Created with Inkscape (http://www.inkscape.org/) -->

<svg
   xmlns:dc="http://purl.org/dc/elements/1.1/"
   xmlns:cc="http://creativecommons.org/ns#"
   xmlns:rdf="http://www.w3.org/1999/02/22-rdf-syntax-ns#"
   xmlns:svg="http://www.w3.org/2000/svg"
   xmlns="http://www.w3.org/2000/svg"
   xmlns:sodipodi="http://sodipodi.sourceforge.net/DTD/sodipodi-0.dtd"
   xmlns:inkscape="http://www.inkscape.org/namespaces/inkscape"
   width="68.824738mm"
   height="67.051285mm"
   viewBox="0 0 243.86717 237.58329"
   id="svg2"
   version="1.1"
   inkscape:version="0.91 r13725"
   sodipodi:docname="gravesite.svg">
  <defs
     id="defs4">
    <pattern
       y="0"
       x="0"
       height="6"
       width="6"
       patternUnits="userSpaceOnUse"
       id="EMFhbasepattern" />
    <clipPath
       id="clipEmfPath1"
       clipPathUnits="userSpaceOnUse">
      <path
         inkscape:connector-curvature="0"
         id="path3366"
         d="m 5.00114,-2.50057 870.19886,0 0,847.69357 -870.19886,0 z" />
    </clipPath>
    <pattern
       y="0"
       x="0"
       height="6"
       width="6"
       patternUnits="userSpaceOnUse"
       id="EMFhbasepattern-5" />
  </defs>
  <sodipodi:namedview
     id="base"
     pagecolor="#ffffff"
     bordercolor="#666666"
     borderopacity="1.0"
     inkscape:pageopacity="0.0"
     inkscape:pageshadow="2"
     inkscape:zoom="0.35"
     inkscape:cx="152.70488"
     inkscape:cy="86.339849"
     inkscape:document-units="px"
     inkscape:current-layer="layer1"
     showgrid="false"
     fit-margin-top="0"
     fit-margin-left="0"
     fit-margin-right="0"
     fit-margin-bottom="0"
     inkscape:window-width="1366"
     inkscape:window-height="706"
     inkscape:window-x="-8"
     inkscape:window-y="-8"
     inkscape:window-maximized="1" />
  <metadata
     id="metadata7">
    <rdf:RDF>
      <cc:Work
         rdf:about="">
        <dc:format>image/svg+xml</dc:format>
        <dc:type
           rdf:resource="http://purl.org/dc/dcmitype/StillImage" />
        <dc:title></dc:title>
      </cc:Work>
    </rdf:RDF>
  </metadata>
  <g
     inkscape:label="Layer 1"
     inkscape:groupmode="layer"
     id="layer1"
     transform="translate(-222.29512,-381.11876)">
    <path
       transform="matrix(0.28222222,0,0,0.28222222,219.97732,380.83206)"
       inkscape:connector-curvature="0"
       id="path3369"
       d="m 403.608,698.363 c -81.034,10.784 -142.455,51.262 -137.219,90.411 5.157,39.15 75.017,62.202 156.051,51.418 80.956,-10.705 142.377,-51.183 137.219,-90.411 -5.235,-39.15 -75.095,-62.124 -156.051,-51.418 z"
       clip-path="url(#clipEmfPath1)"
       style="fill:#ba752d;fill-opacity:1;fill-rule:evenodd;stroke:none" />
    <path
       inkscape:connector-curvature="0"
       id="path3371"
       d="m 392.43683,570.97872 c -26.79503,3.55064 -47.28295,15.65797 -45.76121,27.03773 1.49973,11.35776 24.43537,17.70917 51.23068,14.13652 26.79502,-3.55064 47.28294,-15.65826 45.7612,-27.01573 -1.49973,-11.37976 -24.43536,-17.70916 -51.23067,-14.15852 z"
       style="fill:#ba752d;fill-opacity:1;fill-rule:evenodd;stroke:none" />
    <path
       inkscape:connector-curvature="0"
       id="path3373"
       d="m 253.30043,551.08629 c -7.14542,12.72483 0.11035,30.41198 16.25346,39.47611 16.12138,9.08615 34.99922,6.13071 42.16654,-6.59412 7.16759,-12.72484 -0.0881,-30.41199 -16.23145,-39.49813 -16.1211,-9.08614 -35.02124,-6.131 -42.18855,6.61614 z"
       style="fill:#ba752d;fill-opacity:1;fill-rule:evenodd;stroke:none" />
    <path
       inkscape:connector-curvature="0"
       id="path3375"
       d="m 321.93123,529.62808 c -20.35528,3.44029 -35.26367,15.5036 -33.32283,26.92739 1.91855,11.44609 19.98049,17.92986 40.31404,14.48929 20.33354,-3.44029 35.26366,-15.5036 33.3231,-26.92739 -1.94084,-11.4458 -19.98077,-17.92958 -40.31431,-14.48929 z"
       style="fill:#ba752d;fill-opacity:1;fill-rule:evenodd;stroke:none" />
    <path
       inkscape:connector-curvature="0"
       id="path3377"
       d="m 430.8103,550.53482 c -19.53965,0 -35.37401,8.22622 -35.37401,18.37069 0,10.14476 15.83436,18.3707 35.37401,18.3707 19.51736,0 35.352,-8.22594 35.352,-18.3707 0,-10.14447 -15.83464,-18.37069 -35.352,-18.37069 z"
       style="fill:#ba752d;fill-opacity:1;fill-rule:evenodd;stroke:none" />
    <path
       inkscape:connector-curvature="0"
       id="path3379"
       d="m 394.33364,535.69276 c -29.30934,0 -53.08317,7.43204 -53.08317,16.5845 0,9.1742 23.77383,16.60624 53.08317,16.60624 29.33136,0 53.0829,-7.43204 53.0829,-16.60624 0,-9.15246 -23.75154,-16.5845 -53.0829,-16.5845 z"
       style="fill:#ba752d;fill-opacity:1;fill-rule:evenodd;stroke:none" />
    <path
       transform="matrix(0.28222222,0,0,0.28222222,219.97732,380.83206)"
       inkscape:connector-curvature="0"
       id="path3381"
       d="M 103.461,652.024 C 45.7917,659.682 3.282,698.597 8.67386,738.841 13.9876,779.163 65.1712,805.575 122.841,797.917 180.588,790.259 223.02,751.422 217.706,711.1 212.314,670.778 161.209,644.366 103.461,652.024 Z"
       clip-path="url(#clipEmfPath1)"
       style="fill:#ba752d;fill-opacity:1;fill-rule:evenodd;stroke:none" />
    <path
       inkscape:connector-curvature="0"
       id="path3383"
       d="m 279.36788,584.233 c -18.08395,2.40369 -31.80145,11.48983 -30.63268,20.26723 1.16896,8.7994 16.78291,13.98213 34.86686,11.57816 18.08396,-2.40396 31.80137,-11.46781 30.63268,-20.26722 -1.16896,-8.79941 -16.7829,-13.98214 -34.86686,-11.57817 z"
       style="fill:#ba752d;fill-opacity:1;fill-rule:evenodd;stroke:none" />
    <path
       inkscape:connector-curvature="0"
       id="path3385"
       d="m 332.95821,548.39586 c -53.76672,10.85032 -94.8528,32.08782 -91.76529,47.41531 3.10958,15.34922 49.20167,18.98819 102.96867,8.11558 53.76672,-10.85031 94.85263,-32.0658 91.76512,-47.41531 -3.10953,-15.3272 -49.20178,-18.96618 -102.9685,-8.11558 z"
       style="fill:#ba752d;fill-opacity:1;fill-rule:evenodd;stroke:none" />
    <path
       inkscape:connector-curvature="0"
       id="path3387"
       d="m 323.10019,535.14158 -38.8366,35.72679 7.54239,8.20392 38.8366,-35.7268 z"
       style="fill:#808080;fill-opacity:1;fill-rule:evenodd;stroke:none" />
    <path
       inkscape:connector-curvature="0"
       id="path3389"
       d="m 284.44026,418.25698 0,152.435 115.95806,0 0,-152.435 -115.95806,0 z"
       style="fill:#808080;fill-opacity:1;fill-rule:evenodd;stroke:none" />
    <path
       inkscape:connector-curvature="0"
       id="path3391"
       d="m 342.41915,381.11876 c -32.02178,0 -57.97889,15.61398 -57.97889,34.8669 0,19.25264 25.95711,34.84457 57.97889,34.84457 32.02206,0 57.97917,-15.59193 57.97917,-34.84457 0,-19.25292 -25.95711,-34.8669 -57.97917,-34.8669 z"
       style="fill:#808080;fill-opacity:1;fill-rule:evenodd;stroke:none" />
    <path
       inkscape:connector-curvature="0"
       id="path3393"
       d="m 291.27681,426.39486 0,152.435 115.95806,0 0,-152.435 -115.95806,0 z"
       style="fill:#a6a6a6;fill-opacity:1;fill-rule:evenodd;stroke:none" />
    <path
       inkscape:connector-curvature="0"
       id="path3395"
       d="m 349.25598,389.2786 c -32.02206,0 -57.97917,15.59194 -57.97917,34.84466 0,19.25291 25.95711,34.84484 57.97917,34.84484 32.02178,0 57.97889,-15.59193 57.97889,-34.84484 0,-19.25272 -25.95711,-34.84466 -57.97889,-34.84466 z"
       style="fill:#a6a6a6;fill-opacity:1;fill-rule:evenodd;stroke:none" />
    <path
       inkscape:connector-curvature="0"
       id="path3397"
       d="m 305.21464,546.82981 c 1.14695,-4.19015 1.38938,-3.28591 1.19098,1.54376 -0.17639,4.82995 -0.0883,20.57625 -2.31564,27.43482 -2.22758,6.83655 -10.32114,14.04817 -11.07101,13.67338 -0.74986,-0.35306 4.25648,-8.66704 6.5278,-15.87867 2.27161,-7.23363 4.5212,-22.56084 5.66787,-26.77329 z"
       style="fill:#3eb319;fill-opacity:1;fill-rule:evenodd;stroke:none" />
    <path
       inkscape:connector-curvature="0"
       id="path3399"
       d="m 289.88743,587.93802 c -0.11035,4.36654 -0.55146,3.52862 -1.52174,-1.19098 -0.97028,-4.74162 -4.82967,-20.00278 -4.3005,-27.19211 0.52945,-7.18961 6.66016,-16.12138 7.49836,-15.94471 0.81591,0.17639 -2.0732,9.43892 -2.55834,17.00332 -0.48514,7.54239 0.99257,22.97995 0.88222,27.32448 z"
       style="fill:#3eb319;fill-opacity:1;fill-rule:evenodd;stroke:none" />
    <path
       inkscape:connector-curvature="0"
       id="path3401"
       d="m 299.41469,550.42476 c 0.92625,-3.79335 0.92625,-2.84509 0.33077,1.78618 -0.59549,4.60925 -2.27161,19.87042 -3.92572,25.93509 -1.67611,6.06496 -5.77793,10.98268 -6.06467,10.45352 -0.26472,-0.55147 2.71272,-7.3217 4.43287,-13.71742 1.72014,-6.41745 4.3005,-20.68632 5.22675,-24.45737 z"
       style="fill:#3eb319;fill-opacity:1;fill-rule:evenodd;stroke:none" />
    <path
       inkscape:connector-curvature="0"
       id="path3403"
       d="m 285.4986,581.71869 c 0.81618,3.85938 0.35306,3.04348 -1.21271,-1.36709 -1.56605,-4.41085 -7.05725,-18.78979 -8.15989,-25.09717 -1.12494,-6.28538 0.92625,-12.98956 1.47743,-12.68081 0.55146,0.33076 0.59549,7.9835 1.83049,14.62165 1.21299,6.63815 5.24877,20.66403 6.06468,24.52342 z"
       style="fill:#3eb319;fill-opacity:1;fill-rule:evenodd;stroke:none" />
    <path
       inkscape:connector-curvature="0"
       id="path3405"
       d="m 287.9909,585.60037 c -1.12494,3.83709 -1.16896,2.88883 -0.52945,-1.76445 0.6175,-4.65328 2.29362,-20.0025 4.34453,-26.15551 2.05119,-6.15301 7.54239,-11.31373 7.93948,-10.78428 0.3968,0.52917 -3.44058,7.47607 -5.53551,13.98186 -2.11723,6.50606 -5.09439,20.90702 -6.21905,24.72238 z"
       style="fill:#3eb319;fill-opacity:1;fill-rule:evenodd;stroke:none" />
    <path
       inkscape:connector-curvature="0"
       id="path3407"
       d="m 306.27326,586.57065 c -1.52175,3.90342 -1.6098,2.97716 -0.7939,-1.74216 0.81591,-4.69759 2.88911,-20.15716 5.66787,-26.46454 2.80078,-6.30738 10.51955,-11.8649 11.11504,-11.37976 0.5732,0.50743 -4.74161,7.71877 -7.60871,14.37922 -2.88882,6.66016 -6.85856,21.30382 -8.3803,25.20724 z"
       style="fill:#3eb319;fill-opacity:1;fill-rule:evenodd;stroke:none" />
    <path
       inkscape:connector-curvature="0"
       id="path3409"
       d="m 435.28719,533.31108 c -0.17639,1.21299 -0.28673,8.46865 0,11.86491 0.26473,3.39626 1.45542,6.59384 1.63181,8.49065 0.17667,1.89654 -0.77188,2.95515 -0.57319,2.91113 0.22041,-0.0223 1.65382,-1.45571 1.83049,-3.0655 0.1984,-1.63209 -0.35306,-4.08009 -0.66181,-6.68246 -0.30875,-2.60209 -0.8159,-6.70419 -1.16868,-8.90947 -0.35306,-2.18327 -0.88223,-5.82225 -1.05862,-4.60926 z"
       style="fill:#3eb319;fill-opacity:1;fill-rule:evenodd;stroke:none" />
    <path
       inkscape:connector-curvature="0"
       id="path3411"
       d="m 428.89147,555.69554 c 0.0443,-1.23501 -0.68354,-8.46864 -1.32305,-11.79887 -0.66153,-3.35195 -2.22758,-6.39543 -2.62439,-8.24794 -0.37507,-1.87452 0.48514,-3.02147 0.26473,-2.95515 -0.19869,0.044 -1.49973,1.63181 -1.49973,3.2639 -0.022,1.63209 0.8159,4.01377 1.4334,6.54981 0.59549,2.53634 1.54376,6.57211 2.16126,8.71136 0.59549,2.13924 1.54376,5.68988 1.58778,4.47689 z"
       style="fill:#3eb319;fill-opacity:1;fill-rule:evenodd;stroke:none" />
    <path
       inkscape:connector-curvature="0"
       id="path3413"
       d="m 433.56705,532.78163 c -0.55146,1.05862 -2.75675,6.90288 -3.2862,10.71824 -0.50715,3.79307 -0.088,10.10045 0.15438,12.08532 0.24271,1.98487 1.12494,1.25702 1.34535,-0.1984 0.2207,-1.4557 -0.30875,-5.49148 0,-8.53468 0.28674,-3.02148 1.4557,-7.43233 1.78647,-9.70365 0.30875,-2.29362 0.52917,-5.42516 0,-4.36683 z"
       style="fill:#3eb319;fill-opacity:1;fill-rule:evenodd;stroke:none" />
    <path
       inkscape:connector-curvature="0"
       id="path3415"
       d="m 434.11823,556.15867 c 0.11035,-1.213 0.0443,-7.58642 -0.81591,-11.4238 -0.86021,-3.83737 -3.4623,-9.79198 -4.36654,-11.64448 -0.92625,-1.83022 -1.4557,-0.83792 -1.14695,0.63979 0.30875,1.47744 2.20557,5.20446 2.99946,8.22593 0.79389,3.04349 1.27903,7.67476 1.78618,9.96809 0.50744,2.31564 1.4114,5.42544 1.54376,4.23447 z"
       style="fill:#3eb319;fill-opacity:1;fill-rule:evenodd;stroke:none" />
    <path
       inkscape:connector-curvature="0"
       id="path3417"
       d="m 436.3238,555.6072 c -0.28674,2.07321 0,1.69813 0.8159,-0.48514 0.8159,-2.20528 3.77105,-9.2185 4.0798,-12.68081 0.28674,-3.44028 -1.89653,-8.04954 -2.29362,-8.02752 -0.3968,0.044 0.26473,4.60925 -0.11006,8.24794 -0.35306,3.61696 -2.20557,10.8506 -2.49202,12.94553 z"
       style="fill:#3eb319;fill-opacity:1;fill-rule:evenodd;stroke:none" />
    <path
       inkscape:connector-curvature="0"
       id="path3419"
       d="m 397.44317,589.34941 c -1.98487,3.32994 -1.98487,2.49202 -0.70584,-1.56577 1.27903,-4.05807 4.80766,-17.44444 8.35829,-22.75953 3.52863,-5.31481 12.28401,-9.63732 12.8795,-9.15218 0.57319,0.46312 -5.75621,6.39544 -9.3949,12.01928 -3.66098,5.62356 -9.17448,18.14999 -11.13705,21.4582 z"
       style="fill:#3eb319;fill-opacity:1;fill-rule:evenodd;stroke:none" />
    <path
       inkscape:connector-curvature="0"
       id="path3421"
       d="m 388.99654,553.84303 c 0.044,-3.85939 0.46313,-3.13154 1.38938,1.01431 0.92625,4.14613 4.54293,17.51076 4.14613,23.88418 -0.39709,6.37343 -5.82225,14.51131 -6.57211,14.37894 -0.74987,-0.13236 1.76445,-8.42433 2.11723,-15.1288 0.35278,-6.70419 -1.12466,-20.28924 -1.08063,-24.14863 z"
       style="fill:#3eb319;fill-opacity:1;fill-rule:evenodd;stroke:none" />
    <path
       inkscape:connector-curvature="0"
       id="path3423"
       d="m 394.90684,590.65045 c -0.83792,3.33023 -0.83792,2.49203 -0.28674,-1.56576 0.55146,-4.0578 2.05119,-17.44444 3.57293,-22.75925 1.49945,-5.31509 5.24877,-9.63761 5.4912,-9.15247 0.24271,0.46313 -2.44799,6.39572 -4.01376,12.01928 -1.56577,5.64586 -3.90342,18.15028 -4.76363,21.4582 z"
       style="fill:#3eb319;fill-opacity:1;fill-rule:evenodd;stroke:none" />
    <path
       inkscape:connector-curvature="0"
       id="path3425"
       d="m 380.24116,556.13665 c -0.77188,-3.37425 -0.35278,-2.6464 1.10264,1.1907 1.4557,3.83737 6.57211,16.36381 7.63073,21.8773 1.08063,5.53551 -0.70584,11.53414 -1.21299,11.26942 -0.48514,-0.26473 -0.61751,-7.03496 -1.78647,-12.8572 -1.16868,-5.82225 -4.96203,-18.08396 -5.73391,-21.48022 z"
       style="fill:#3eb319;fill-opacity:1;fill-rule:evenodd;stroke:none" />
    <path
       inkscape:connector-curvature="0"
       id="path3427"
       d="m 376.91122,559.26819 c -1.14695,-3.13154 -1.30133,-2.448 -0.88223,1.19098 0.4191,3.61668 1.21299,15.48158 3.39627,20.57597 2.18327,5.11641 9.10815,10.29914 9.70364,10.0124 0.59549,-0.30875 -3.92571,-6.41773 -6.15301,-11.79886 -2.22729,-5.35884 -4.89599,-16.84895 -6.06467,-19.98049 z"
       style="fill:#3eb319;fill-opacity:1;fill-rule:evenodd;stroke:none" />
  </g>
</svg>
