<?xml version="1.0" encoding="UTF-8"?>
<svg version="1.1" xmlns="http://www.w3.org/2000/svg" width="512" height="512">
<path d="M0 0 C1.02607864 -0.00671722 2.05215729 -0.01343445 3.10932922 -0.02035522 C6.46933976 -0.03920239 9.82914902 -0.04325309 13.18920898 -0.04541016 C15.55175352 -0.05184867 17.91429728 -0.05857779 20.27684021 -0.06558228 C25.22006068 -0.07752294 30.16321145 -0.08126655 35.10644531 -0.08007812 C41.39448998 -0.07987545 47.68208014 -0.10714002 53.97001743 -0.14162254 C58.84925833 -0.1640271 63.72839233 -0.16791149 68.60767937 -0.16685867 C70.92337543 -0.16919573 73.23907532 -0.17791025 75.55471992 -0.19352341 C107.89593827 -0.39112733 132.97001978 8.06861516 156.81030273 30.66552734 C164.86238831 39.02509113 174.0557304 50.70861058 176.12280273 62.29052734 C177.18062958 62.27720367 177.18062958 62.27720367 178.25982666 62.26361084 C184.91019981 62.18341812 191.56043779 62.12253953 198.21118546 62.08327866 C201.63033954 62.06241534 205.04909368 62.03412229 208.46801758 61.98876953 C212.39977204 61.93694116 216.33136531 61.91757157 220.26342773 61.89990234 C221.48958801 61.8792572 222.71574829 61.85861206 223.97906494 61.83734131 C225.11994568 61.83703918 226.26082642 61.83673706 227.4362793 61.83642578 C228.43999573 61.82754333 229.44371216 61.81866089 230.47784424 61.80950928 C233.85552666 62.42378216 235.0506911 63.6030351 237.12280273 66.29052734 C237.20849609 68.98388672 237.20849609 68.98388672 236.71264648 72.13427734 C233.93869677 100.66442635 250.32905806 120.50689338 267.12280273 142.29052734 C267.45280273 142.62052734 267.78280273 142.95052734 268.12280273 143.29052734 C268.26159983 146.40992038 268.33609978 149.5054324 268.36108398 152.62646484 C268.36915573 153.57558746 268.37722748 154.52471008 268.38554382 155.50259399 C268.39941232 157.52189292 268.41012202 159.54121557 268.41796875 161.56054688 C268.43503823 164.618147 268.47888095 167.67462502 268.52319336 170.73193359 C268.63606305 184.67302282 267.71810826 195.1064209 258.32592773 206.06396484 C253.61214451 210.8278947 248.80524004 213.79101497 242.46240234 215.86889648 C241.65024765 216.13601944 240.83809296 216.4031424 240.00132751 216.67835999 C239.07145775 216.98138283 239.07145775 216.98138283 238.12280273 217.29052734 C238.12066521 218.94970184 238.12066521 218.94970184 238.1184845 220.64239502 C238.10182374 231.06038136 238.05907838 241.47797663 237.99071217 251.89575577 C237.9564036 257.25185001 237.93132616 262.60765785 237.92724609 267.96386719 C237.92297146 273.13180074 237.89457803 278.2990878 237.84937096 283.46681976 C237.83636922 285.43956488 237.83209771 287.41238727 237.83664894 289.38516998 C237.84153595 292.14632703 237.81554797 294.90558066 237.78222656 297.66650391 C237.79516502 298.89325584 237.79516502 298.89325584 237.80836487 300.14479065 C237.72772469 304.1239693 237.4979875 305.89627639 234.70658875 308.82952881 C232.12280273 310.29052734 232.12280273 310.29052734 230.12280273 310.29052734 C230.12280273 315.90052734 230.12280273 321.51052734 230.12280273 327.29052734 C231.77280273 327.62052734 233.42280273 327.95052734 235.12280273 328.29052734 C237.23065021 331.45229855 237.35723442 331.98676949 237.19940186 335.54951477 C237.16721054 336.4190126 237.13501923 337.28851044 237.10185242 338.18435669 C237.03439568 339.61230057 237.03439568 339.61230057 236.96557617 341.0690918 C236.88645567 343.15508415 236.80878746 345.24113195 236.73236084 347.32722473 C236.68950706 348.43757395 236.64665329 349.54792316 236.60250092 350.69191933 C236.35308729 357.86794604 236.24907553 365.04783001 236.12385178 372.22691059 C236.00625232 378.50660872 235.83598831 384.77545185 235.54223633 391.04956055 C232.96231354 421.79911348 232.96231354 421.79911348 244.88427734 448.72119141 C250.55829781 454.60580018 256.96486369 459.66010211 263.30586338 464.7984724 C267.83253725 468.62413774 270.13731534 471.91508348 271.07089233 477.92970276 C271.20954191 482.19928847 270.82213845 486.20058528 270.18530273 490.41552734 C270.05969574 492.12287019 269.94838781 493.83132453 269.85131836 495.54052734 C268.90251928 508.817212 268.90251928 508.817212 265.12280273 512.29052734 C262.22683225 512.68873497 259.70819375 512.82625897 256.80981445 512.79173279 C255.95182188 512.79726718 255.09382931 512.80280158 254.20983696 512.80850369 C251.32376346 512.82215884 248.4385475 512.80711476 245.55249023 512.79223633 C243.48797232 512.79601774 241.42345694 512.8015163 239.35894775 512.80860901 C233.74329329 512.82260409 228.12794383 512.81136537 222.51230621 512.79489779 C216.64402508 512.78107792 210.77576222 512.78750387 204.9074707 512.79103088 C195.05146349 512.79373543 185.19557789 512.78023634 175.33959961 512.75708008 C163.93391613 512.73046886 152.52843604 512.72872236 141.12273216 512.74046844 C130.16474167 512.75123612 119.20682496 512.74506708 108.24884033 512.73091316 C103.57902285 512.72514459 98.90925921 512.72524288 94.23944092 512.72997856 C88.74338815 512.73474007 83.24755897 512.72468094 77.75154877 512.70302391 C75.73066716 512.69744459 73.70976411 512.69700118 71.68888092 512.70197678 C68.93760024 512.70790269 66.1870094 512.69547653 63.43579102 512.6782074 C62.22631963 512.68722247 62.22631963 512.68722247 60.99241447 512.69641966 C55.62693096 512.63486155 55.62693096 512.63486155 53.16574097 510.95379734 C52.12280273 509.29052734 52.12280273 509.29052734 51.12280273 506.29052734 C48.51691384 506.15558488 45.91798162 506.05650435 43.31030273 505.97802734 C42.57231445 505.93613281 41.83432617 505.89423828 41.07397461 505.85107422 C38.63540428 505.74189128 38.63540428 505.74189128 35.12280273 506.29052734 C33.08819498 508.62372077 33.08819498 508.62372077 32.12280273 511.29052734 C30.33059558 513.0827345 27.89876111 512.42371097 25.51135361 512.43825704 C24.69921367 512.43807268 23.88707373 512.43788831 23.05032349 512.43769836 C22.19403976 512.44137505 21.33775604 512.44505174 20.45552433 512.44883984 C17.56352397 512.45992264 14.67155948 512.46372825 11.77954102 512.4675293 C9.71532068 512.47379041 7.65110149 512.48043689 5.58688354 512.48744202 C-0.03704232 512.50488296 -5.66095967 512.51541185 -11.28490591 512.52364755 C-14.79443226 512.52879035 -18.30395592 512.53486634 -21.81348038 512.54115868 C-32.78212768 512.56021798 -43.75076821 512.57444845 -54.7194289 512.58277065 C-67.40322131 512.5925517 -80.08683961 512.61889084 -92.77057064 512.65927154 C-102.55994249 512.6893739 -112.34926427 512.70423386 -122.13868153 512.70755166 C-127.9923423 512.70990859 -133.84581722 512.71895235 -139.69942856 512.74401283 C-145.20366501 512.76719631 -150.70759196 512.77156614 -156.21186447 512.76125145 C-158.23598761 512.76075362 -160.26012548 512.76714611 -162.28420258 512.7808075 C-165.04009555 512.79837262 -167.79485913 512.79149681 -170.55075073 512.77827454 C-171.35842923 512.78924378 -172.16610773 512.80021303 -172.99826133 512.81151468 C-178.377979 512.74886752 -178.377979 512.74886752 -180.84655952 510.48242474 C-183.38549821 505.08276504 -183.41794871 498.8466866 -183.75146484 492.97412109 C-183.90573404 490.43167926 -183.90573404 490.43167926 -184.30517578 487.99658203 C-185.29821372 481.28350904 -185.06682669 475.39661723 -181.87719727 469.29052734 C-179.80773268 467.09808166 -177.50147125 465.2768523 -175.12129211 463.43280029 C-162.82077168 453.78422291 -151.43758489 444.28435548 -149.20747375 428.03549194 C-147.94248673 415.87805846 -148.39295754 403.61215132 -148.83537912 391.42045069 C-149.02547969 385.27970891 -149.04073421 379.13831671 -149.07614136 372.99508667 C-149.16866646 361.41090059 -149.41377567 349.83540945 -149.71662605 338.25502002 C-150.05428043 325.05146107 -150.21746269 311.84744205 -150.3674891 298.64062715 C-150.67941596 271.51914238 -151.20559505 244.4053259 -151.87719727 217.29052734 C-152.63586594 217.02294113 -153.39453461 216.75535492 -154.17619324 216.47966003 C-155.1696022 216.12487076 -156.16301117 215.77008148 -157.18652344 215.40454102 C-158.17206711 215.0544548 -159.15761078 214.70436859 -160.17301941 214.34367371 C-168.4482641 211.12086651 -175.01520507 204.19497866 -178.87719727 196.29052734 C-185.13994567 180.01943503 -187.31781566 156.48726156 -180.59136963 140.17163086 C-173.650949 126.29677343 -163.8918076 113.8329829 -154.09840393 101.86740112 C-151.40974219 98.39568719 -151.73857917 95.56548056 -151.70141602 91.23583984 C-151.67821723 89.80223142 -151.65409987 88.36863762 -151.62915039 86.93505859 C-151.59403954 84.67470521 -151.56469348 82.41488975 -151.55126953 80.15429688 C-151.53577707 77.97248203 -151.49556505 75.79223856 -151.45141602 73.61083984 C-151.4368335 72.3038916 -151.42225098 70.99694336 -151.40722656 69.65039062 C-150.77923211 65.66952485 -150.00178425 64.7371381 -146.87719727 62.29052734 C-144.23223877 61.80950928 -144.23223877 61.80950928 -141.19067383 61.83642578 C-140.04979309 61.83672791 -138.90891235 61.83703003 -137.73345947 61.83734131 C-135.89421906 61.86830902 -135.89421906 61.86830902 -134.01782227 61.89990234 C-132.7583075 61.90556213 -131.49879272 61.91122192 -130.20111084 61.91705322 C-126.86010702 61.93564687 -123.52020259 61.97155406 -120.17950439 62.01586914 C-116.76763387 62.05686232 -113.35564957 62.07507276 -109.94360352 62.09521484 C-103.25449806 62.1393307 -96.56591112 62.20628084 -89.87719727 62.29052734 C-89.67812775 61.67446625 -89.47905823 61.05840515 -89.2739563 60.42367554 C-89.00912445 59.61451691 -88.7442926 58.80535828 -88.47143555 57.97167969 C-88.08001877 56.76915054 -88.08001877 56.76915054 -87.68069458 55.54232788 C-84.41722065 46.39644499 -77.16361416 38.50574817 -70.87719727 31.29052734 C-70.06702148 30.35273437 -70.06702148 30.35273437 -69.24047852 29.39599609 C-51.88673949 10.7308914 -25.14799572 -0.0241955 0 0 Z " fill="#010101" transform="translate(212.877197265625,-0.29052734375)"/>
<path d="M0 0 C3 1 3 1 5.0625 3.1875 C11.65140353 10.07772534 19.46734329 13.06636045 28.75341797 13.44482422 C40.55257797 13.69315819 48.86360888 11.87477912 58.1875 4.19921875 C60.0231639 2.47781337 60.0231639 2.47781337 62 0 C65.10644456 1.38216256 67.19891506 3.01085765 69.625 5.375 C78.43043086 13.04372979 87.63088204 14.0248864 98.9921875 13.58203125 C107.86973118 12.84814081 115.49060252 8.75477441 121.875 2.5625 C122.57625 1.716875 123.2775 0.87125 124 0 C126.85760908 1.30456066 128.96323951 2.73254963 131.25 4.875 C138.6420923 11.39087446 146.00540266 13.2077874 155.625 13.3125 C156.48996094 13.34150391 157.35492188 13.37050781 158.24609375 13.40039062 C166.41658748 13.48001313 172.9503113 11.02032334 179.375 5.9375 C180.00148438 5.45152344 180.62796875 4.96554688 181.2734375 4.46484375 C182.94036186 3.05059797 184.48070416 1.57056043 186 0 C188.85760908 1.30456066 190.96323951 2.73254963 193.25 4.875 C200.6420923 11.39087446 208.00540266 13.2077874 217.625 13.3125 C218.48996094 13.34150391 219.35492188 13.37050781 220.24609375 13.40039062 C230.39031014 13.49924731 238.58184357 9.22606267 245.875 2.25 C246.57625 1.5075 247.2775 0.765 248 0 C250.82406634 1.28699352 252.84169633 2.65985399 255.0625 4.8125 C265.00547606 13.2785905 275.16667641 14.13169442 287.77587891 13.24365234 C295.66543635 12.37935176 302.22801241 8.30513565 308 3 C308.66 2.01 309.32 1.02 310 0 C312.85760908 1.30456066 314.96323951 2.73254963 317.25 4.875 C322.5678146 9.54374515 328.34124983 11.80402317 335 14 C335.00879936 15.66250542 335.00879936 15.66250542 335.01777649 17.3585968 C335.07493061 27.79155261 335.1476537 38.22429852 335.23571491 48.6570406 C335.2804878 54.02093829 335.31972859 59.38475881 335.34643555 64.7487793 C335.37239958 69.92306893 335.41275276 75.09706268 335.46318626 80.27116966 C335.47990179 82.2475333 335.49138679 84.22394818 335.49761391 86.2003727 C335.50720418 88.96373313 335.53520196 91.7263285 335.56762695 94.48950195 C335.56547432 95.7216468 335.56547432 95.7216468 335.5632782 96.97868347 C335.52602505 101.09170448 335.52602505 101.09170448 337.27492046 104.67122173 C339.19232247 106.33131861 339.19232247 106.33131861 343 107 C343 112.94 343 118.88 343 125 C341.35 125.66 339.7 126.32 338 127 C335.60371573 129.39628427 335.74514385 129.92176783 335.7215271 133.18875122 C335.71037558 134.06474535 335.69922405 134.94073948 335.6877346 135.84327888 C335.68556246 136.81039236 335.68339031 137.77750584 335.68115234 138.77392578 C335.67099909 139.80503416 335.66084583 140.83614254 335.6503849 141.89849663 C335.61966603 145.24743153 335.6025686 148.59628103 335.5859375 151.9453125 C335.56901125 154.00838971 335.55119555 156.07145982 335.5324707 158.13452148 C335.46918363 165.79793277 335.42314945 173.46147866 335.375 181.125 C335.25125 198.24375 335.1275 215.3625 335 233 C268.01 233 201.02 233 132 233 C131.625 141.625 131.625 141.625 131.52197266 112.72900391 C131.48208268 104.21207539 131.48208268 104.21207539 131.43954468 95.69515991 C131.42060807 91.88941775 131.40729219 88.08369957 131.39730835 84.27792358 C131.38441244 79.4311888 131.36208315 74.58458572 131.33276629 69.73792338 C131.32361267 67.95434197 131.31784237 66.17073942 131.31574559 64.38713574 C131.31245039 61.98723639 131.29705536 59.58771902 131.2784729 57.18789673 C131.28040838 56.48188009 131.28234386 55.77586346 131.284338 55.04845238 C131.33867611 51.08054107 131.33867611 51.08054107 129 48 C126.62851452 47.69355589 126.62851452 47.69355589 123.84765625 47.74121094 C122.77314209 47.73490662 121.69862793 47.72860229 120.59155273 47.72210693 C118.84467163 47.72817963 118.84467163 47.72817963 117.0625 47.734375 C115.87148682 47.73246155 114.68047363 47.7305481 113.45336914 47.72857666 C110.93147572 47.7272137 108.40957531 47.73091784 105.88769531 47.73925781 C102.01611651 47.74995547 98.14500178 47.73936594 94.2734375 47.7265625 C91.82812397 47.72788407 89.38281073 47.73044642 86.9375 47.734375 C85.7729126 47.73032654 84.6083252 47.72627808 83.40844727 47.72210693 C82.33393311 47.72841125 81.25941895 47.73471558 80.15234375 47.74121094 C79.20351318 47.74280212 78.25468262 47.74439331 77.27709961 47.74603271 C74.80152303 47.78222957 74.80152303 47.78222957 73 50 C72.49968794 53.41571853 72.49968794 53.41571853 73 57 C83.43764554 67.43764554 102.24355079 61.63108877 117 62 C117 118.43 117 174.86 117 233 C81.03 233 45.06 233 8 233 C8 176.24 8 119.48 8 61 C22.52 60.67 37.04 60.34 52 60 C53.53546323 51.90795938 53.53546323 51.90795938 52 48 C44.22215005 47.92406786 36.44439532 47.87144988 28.66625977 47.83520508 C26.01908801 47.8200988 23.37194136 47.7996127 20.72485352 47.77368164 C16.92457899 47.73738009 13.12463474 47.72029197 9.32421875 47.70703125 C8.13664474 47.69154739 6.94907074 47.67606354 5.72550964 47.66011047 C4.62459488 47.65988388 3.52368011 47.65965729 2.3894043 47.65942383 C1.41899704 47.65276199 0.44858978 47.64610016 -0.55122375 47.63923645 C-2.97614769 47.82100644 -2.97614769 47.82100644 -4.62812805 49.06816101 C-6.68157688 51.95978111 -6.42242069 54.85169429 -6.39872742 58.27018738 C-6.40537424 59.01595718 -6.41202107 59.76172699 -6.41886932 60.53009588 C-6.43756367 63.03607067 -6.43488977 65.54157072 -6.43237305 68.04760742 C-6.4413863 69.84113747 -6.45171243 71.63466134 -6.46325684 73.42817688 C-6.49090435 78.30389292 -6.50012185 83.17949234 -6.50611091 88.05527663 C-6.51547445 93.14825193 -6.54167614 98.24113942 -6.56611633 103.33406067 C-6.60984073 112.9812529 -6.63835118 122.62842815 -6.66143972 132.27568942 C-6.68845959 143.25746257 -6.73237304 154.23914763 -6.77772844 165.22085798 C-6.87065979 187.8138595 -6.94170235 210.40688487 -7 233 C-12.28 233 -17.56 233 -23 233 C-23 160.73 -23 88.46 -23 14 C-18.38 12.02 -13.76 10.04 -9 8 C-5.7411179 5.34742155 -2.85863706 2.97963757 0 0 Z " fill="#DAE7E7" transform="translate(100,202)"/>
<path d="M0 0 C0.99804007 -0.00807831 0.99804007 -0.00807831 2.01624256 -0.01631981 C4.25035967 -0.030651 6.48388856 -0.02348335 8.71803284 -0.01637268 C10.31788104 -0.02207359 11.91772518 -0.02903677 13.51756287 -0.03717041 C17.86674705 -0.05514823 22.21573 -0.05392476 26.56494021 -0.04822803 C30.19330781 -0.04514273 33.82163638 -0.05122128 37.44999844 -0.05726677 C46.00861438 -0.07132567 54.56713055 -0.06973948 63.12574768 -0.05836487 C71.96052826 -0.04688282 80.79500532 -0.06095761 89.6297459 -0.08776134 C97.21029503 -0.10990042 104.79074876 -0.11655976 112.37132794 -0.11068493 C116.9009201 -0.10730977 121.43031769 -0.10976731 125.95988274 -0.12693596 C130.21909688 -0.1423745 134.47786059 -0.13848426 138.73705673 -0.11963081 C140.30117136 -0.11593627 141.86531914 -0.11907857 143.42940331 -0.1295166 C145.56315902 -0.14267029 147.69541114 -0.1312317 149.82910156 -0.11352539 C151.02353599 -0.11331611 152.21797041 -0.11310682 153.44859982 -0.1128912 C156.4780426 0.38768005 156.4780426 0.38768005 158.86269665 2.08454037 C160.82174875 4.8777319 160.97643928 6.34815339 160.97251892 9.73912048 C160.9809079 10.82426437 160.98929688 11.90940826 160.99794006 13.0274353 C160.98670105 14.21301529 160.97546204 15.39859528 160.96388245 16.62010193 C160.96767914 17.87247147 160.97147583 19.124841 160.97538757 20.41516113 C160.98152834 23.84726067 160.96978563 27.27839702 160.94948149 30.71038246 C160.93190329 34.30263798 160.93543572 37.89487759 160.936203 41.48716736 C160.93433035 47.51968592 160.91697172 53.55200318 160.8896637 59.5844574 C160.85821321 66.55773787 160.84766753 73.53079791 160.8491348 80.50414419 C160.85048614 87.92941314 160.83660103 95.35459715 160.8182416 102.77984047 C160.81398034 104.91881254 160.81255942 107.0577709 160.81176376 109.19674683 C160.80938014 113.18299643 160.78995035 117.16906307 160.76856995 121.15525818 C160.76947632 122.34083817 160.77038269 123.52641815 160.77131653 124.7479248 C160.76278656 125.8330687 160.75425659 126.91821259 160.74546814 128.03623962 C160.74211645 128.97864754 160.73876476 129.92105545 160.73531151 130.89202118 C160.45687143 133.59305283 160.01665391 135.15386116 158.4780426 137.38768005 C155.1527623 139.77230909 151.9964437 139.64356546 147.99441528 139.65510559 C147.34524059 139.6596367 146.69606589 139.66416782 146.02721924 139.66883624 C143.85393482 139.68148733 141.68090077 139.67985946 139.50758362 139.6782074 C137.94862038 139.68419215 136.38966011 139.69099758 134.83070374 139.69856262 C130.59725298 139.71623368 126.36388306 139.72091842 122.13039899 139.72219419 C118.59652411 139.72409341 115.06266806 139.73145107 111.52880043 139.73853838 C103.19212861 139.75482358 94.85549998 139.75970716 86.51881409 139.75828552 C77.91750563 139.75708353 69.31644787 139.77819648 60.71520287 139.80977285 C53.33080443 139.83591649 45.94648798 139.84665365 38.56204361 139.8453747 C34.15146728 139.84486457 29.74111382 139.85057601 25.33058357 139.8717308 C21.18299441 139.8910815 17.03584146 139.89125964 12.888237 139.87669754 C11.36646069 139.87460449 9.84465729 139.8793399 8.32292747 139.89141846 C6.24432245 139.90684808 4.16722592 139.89758059 2.08865356 139.88215637 C0.92593713 139.88324591 -0.23677931 139.88433544 -1.43472958 139.88545799 C-5.26012389 139.26865968 -6.90695817 138.23078332 -9.5219574 135.38768005 C-10.14557648 132.84237576 -10.14557648 132.84237576 -10.14341736 129.9156189 C-10.15462616 128.80378738 -10.16583496 127.69195587 -10.17738342 126.5464325 C-10.15748856 124.72362762 -10.15748856 124.72362762 -10.13719177 122.86399841 C-10.14274078 121.58076187 -10.14828979 120.29752533 -10.15400696 118.97540283 C-10.16825321 115.45873588 -10.15119704 111.94285097 -10.12772179 108.4262588 C-10.10761628 104.74678128 -10.1134921 101.06733633 -10.11582947 97.38781738 C-10.1157759 91.20982459 -10.09601957 85.03213768 -10.06394958 78.85423279 C-10.0270404 71.70933086 -10.01827622 64.56482939 -10.0252471 57.41984457 C-10.03154928 50.54803551 -10.02080421 43.67636392 -10.00128174 36.8045826 C-9.99310211 33.87919215 -9.99039921 30.95387192 -9.99197388 28.02847099 C-9.99301492 23.94609676 -9.96885978 19.86425225 -9.94187927 15.78196716 C-9.94480988 14.56473969 -9.94774048 13.34751221 -9.95075989 12.09339905 C-9.9394101 10.98438736 -9.9280603 9.87537567 -9.91636658 8.73275757 C-9.91263786 7.76730483 -9.90890915 6.80185209 -9.90506744 5.80714321 C-9.5219574 3.38768005 -9.5219574 3.38768005 -8.40492916 1.57784271 C-5.59641662 -0.19732292 -3.30564188 0.00672695 0 0 Z " fill="#98E5FB" transform="translate(258.52195739746094,248.61231994628906)"/>
<path d="M0 0 C4.44551672 0.05977703 8.88858121 -0.03242231 13.33357906 -0.10347795 C22.00481979 -0.21815588 30.67016096 -0.19456901 39.34161806 -0.11874929 C46.39789622 -0.05964533 53.45253855 -0.05222894 60.5089941 -0.08036852 C61.51929751 -0.08435258 62.52960091 -0.08833664 63.57051957 -0.09244142 C65.62394714 -0.10075561 67.67737424 -0.10918519 69.73080087 -0.1177288 C88.91550802 -0.1915928 108.09696746 -0.10707219 127.28114152 0.03308073 C143.6863325 0.14922777 160.08673849 0.12904295 176.49184322 0.00919294 C195.6148972 -0.13045123 214.73511636 -0.18445456 233.8586092 -0.1048882 C235.90381356 -0.09660731 237.94901837 -0.08843364 239.99422359 -0.08036852 C241.00008798 -0.07635736 242.00595236 -0.07234619 243.04229748 -0.06821348 C250.07730808 -0.04591147 257.11049648 -0.08332808 264.14522457 -0.1448369 C272.73856574 -0.21833351 281.32575 -0.19689561 289.91839933 -0.05953756 C294.2917111 0.00810459 298.65483024 0.03690866 303.02802944 -0.05041552 C320.81119031 -0.37506319 334.41268558 0.86931167 347.7945683 13.56746164 C355.11472305 20.89645696 361.40071677 27.9553079 361.99992847 38.73056054 C361.82104551 42.78239224 361.22984702 46.46080567 360.25160885 50.39884138 C359.23908896 50.40122973 358.22656908 50.40361809 357.18336678 50.40607882 C332.57224695 50.46481429 307.96122549 50.54066004 283.350214 50.63455629 C271.44862089 50.67956527 259.54705803 50.71896809 247.64540768 50.74527693 C237.2746703 50.76821576 226.9040283 50.80156747 216.5333665 50.84754294 C211.03969509 50.8715308 205.54611846 50.89022305 200.05239582 50.89645529 C194.88549185 50.90248105 189.71883058 50.92238951 184.55201626 50.95311689 C182.65208842 50.96193752 180.75212893 50.96561144 178.85218143 50.96384954 C176.26492186 50.96220729 173.67841142 50.97880555 171.09125423 51.00011396 C169.9545868 50.9928426 169.9545868 50.9928426 168.79495639 50.98542434 C164.83938017 51.03612659 164.83938017 51.03612659 161.32413101 52.67376184 C159.97088869 54.65398761 159.97088869 54.65398761 159.25160885 58.39884138 C153.31160885 58.39884138 147.37160885 58.39884138 141.25160885 58.39884138 C140.26160885 55.92384138 140.26160885 55.92384138 139.25160885 53.39884138 C135.55124496 50.93193212 132.73167136 51.10938005 128.44992733 51.12036848 C127.64698779 51.11457608 126.84404826 51.10878368 126.01677722 51.10281575 C123.31742624 51.08576596 120.61824571 51.08293498 117.91884518 51.07999372 C115.98738845 51.07069898 114.05593576 51.06053099 112.12448788 51.04955244 C106.87277547 51.02218721 101.62108998 51.00708373 96.36932492 50.99412441 C90.88398436 50.97852236 85.39869901 50.95172286 79.91339779 50.92609358 C69.5224736 50.87925388 59.13153909 50.84253492 48.74056309 50.8094207 C36.91238945 50.77123595 25.08427118 50.72181627 13.25614417 50.67143655 C-11.07865993 50.56803949 -35.41349957 50.47880441 -59.74839115 50.39884138 C-61.64619325 42.75897138 -62.60667498 34.94006842 -58.85724592 27.67121798 C-44.67100754 4.39335919 -25.60678751 -0.51131709 0 0 Z " fill="#6D8988" transform="translate(105.74839115142822,446.601158618927)"/>
<path d="M0 0 C0.33 0 0.66 0 1 0 C1.4021875 1.670625 1.4021875 1.670625 1.8125 3.375 C2.65809019 7.21840951 2.65809019 7.21840951 6 9 C25.8 9.495 25.8 9.495 46 10 C46 66.43 46 122.86 46 181 C10.03 181 -25.94 181 -63 181 C-63 124.24 -63 67.48 -63 9 C-48.48 8.67 -33.96 8.34 -19 8 C-18.34 6.02 -17.68 4.04 -17 2 C-11.39 2 -5.78 2 0 2 C0 1.34 0 0.68 0 0 Z " fill="#98E5FB" transform="translate(171,254)"/>
<path d="M0 0 C0.9217099 -0.0049649 1.8434198 -0.00992981 2.7930603 -0.01504517 C5.81639376 -0.02954572 8.83967471 -0.03644935 11.86303711 -0.04199219 C13.42593884 -0.04623325 13.42593884 -0.04623325 15.02041435 -0.05056 C20.53721236 -0.06550537 26.05398455 -0.07476353 31.57080078 -0.07910156 C37.22677316 -0.08457156 42.88250306 -0.10858207 48.5383997 -0.13707352 C52.92515216 -0.15583436 57.31184784 -0.16091266 61.69863701 -0.16243744 C63.78153238 -0.1654355 65.86442745 -0.17336578 67.94728279 -0.18662262 C83.33484313 -0.27755215 98.4730189 0.0782556 112.64038086 6.84863281 C113.39254883 7.19676025 114.1447168 7.5448877 114.91967773 7.90356445 C121.29589691 10.9511834 126.90749622 14.61528307 132.32788086 19.16113281 C133.17608398 19.84820312 134.02428711 20.53527344 134.89819336 21.24316406 C149.34589684 33.50382986 159.93592956 51.41613882 163.32788086 70.16113281 C163.32788086 72.80113281 163.32788086 75.44113281 163.32788086 78.16113281 C80.82788086 78.16113281 -1.67211914 78.16113281 -86.67211914 78.16113281 C-86.67211914 72.11973493 -86.42387452 68.03412743 -84.60961914 62.53613281 C-84.38628906 61.8480957 -84.16295898 61.16005859 -83.93286133 60.45117188 C-76.18080053 37.49030608 -61.369455 19.87176778 -39.79711914 8.91113281 C-26.75534076 2.49512074 -14.42737697 0.0189844 0 0 Z " fill="#DCE9E9" transform="translate(217.672119140625,14.8388671875)"/>
<path d="M0 0 C3 1 3 1 5.0625 3.1875 C11.65140353 10.07772534 19.46734329 13.06636045 28.75341797 13.44482422 C40.55257797 13.69315819 48.86360888 11.87477912 58.1875 4.19921875 C60.0231639 2.47781337 60.0231639 2.47781337 62 0 C65.10644456 1.38216256 67.19891506 3.01085765 69.625 5.375 C78.43043086 13.04372979 87.63088204 14.0248864 98.9921875 13.58203125 C107.86973118 12.84814081 115.49060252 8.75477441 121.875 2.5625 C122.57625 1.716875 123.2775 0.87125 124 0 C126.85760908 1.30456066 128.96323951 2.73254963 131.25 4.875 C138.6420923 11.39087446 146.00540266 13.2077874 155.625 13.3125 C156.48996094 13.34150391 157.35492188 13.37050781 158.24609375 13.40039062 C166.41658748 13.48001313 172.9503113 11.02032334 179.375 5.9375 C180.00148438 5.45152344 180.62796875 4.96554688 181.2734375 4.46484375 C182.94036186 3.05059797 184.48070416 1.57056043 186 0 C188.85760908 1.30456066 190.96323951 2.73254963 193.25 4.875 C200.6420923 11.39087446 208.00540266 13.2077874 217.625 13.3125 C218.48996094 13.34150391 219.35492188 13.37050781 220.24609375 13.40039062 C230.39031014 13.49924731 238.58184357 9.22606267 245.875 2.25 C246.57625 1.5075 247.2775 0.765 248 0 C250.82406634 1.28699352 252.84169633 2.65985399 255.0625 4.8125 C265.00547606 13.2785905 275.16667641 14.13169442 287.77587891 13.24365234 C295.66543635 12.37935176 302.22801241 8.30513565 308 3 C308.66 2.01 309.32 1.02 310 0 C312.85760908 1.30456066 314.96323951 2.73254963 317.25 4.875 C322.61717835 9.58708378 328.2544782 11.75149273 335 14 C335 42.38 335 70.76 335 100 C334.67 100 334.34 100 334 100 C334 75.91 334 51.82 334 27 C330.04 26.01 330.04 26.01 326 25 C322.93325497 23.49765419 319.97694731 21.9244886 317.02539062 20.21484375 C314.16372895 18.66782754 312.60391156 17.85239717 309.37890625 18.640625 C308.20134766 19.31351563 308.20134766 19.31351563 307 20 C306.19820313 20.4021875 305.39640625 20.804375 304.5703125 21.21875 C302.94418921 22.07077626 301.31918072 22.92493364 299.6953125 23.78125 C293.33794698 26.65588484 287.5564226 27.36042909 280.6875 27.3125 C279.42292969 27.30404053 279.42292969 27.30404053 278.1328125 27.29541016 C268.02400636 27.09815563 261.07514537 24.41837129 252.54296875 19.01171875 C250.03606116 17.72105242 250.03606116 17.72105242 247.4765625 18.67578125 C246.25066406 19.33126953 246.25066406 19.33126953 245 20 C244.20980469 20.4021875 243.41960937 20.804375 242.60546875 21.21875 C240.99958613 22.06968619 239.39539982 22.92383175 237.79296875 23.78125 C225.87318004 28.98261234 210.55818484 28.88939204 198.515625 24.23046875 C195.38263889 22.69802989 192.56163932 20.90732385 189.81640625 18.7578125 C187.92703658 17.7457335 187.92703658 17.7457335 185.58203125 18.7109375 C182.26651365 20.36618835 178.9732276 22.05270313 175.6953125 23.78125 C164.34014742 28.91575943 149.22797735 29.12287213 137.5625 24.75 C134.29576336 23.27891473 131.38370052 21.68010464 128.5 19.5625 C127.675 19.046875 126.85 18.53125 126 18 C121.68413618 19.36704808 117.77316463 21.65155302 113.79296875 23.78125 C101.68029959 29.06677836 87.07574314 28.52233104 74.7734375 24.23046875 C72.13762154 23.06105745 69.88171836 21.74084982 67.5 20.125 C64.78075831 18.16091948 64.78075831 18.16091948 61.5 18.4375 C60.2625 19.2109375 60.2625 19.2109375 59 20 C46.26526948 26.89917681 31.37507241 30.18390026 17.0625 26.015625 C11.29698095 23.85355535 6.38242554 21.07567174 1 18 C1 27.24 1 36.48 1 46 C16.51 46 32.02 46 48 46 C48 46.33 48 46.66 48 47 C47.36772995 47.00586624 46.7354599 47.01173248 46.08403015 47.01777649 C39.51413708 47.08161987 32.944738 47.16601581 26.37524414 47.26245117 C23.92218531 47.29574326 21.46904909 47.3237617 19.01586914 47.34643555 C15.49331622 47.37990229 11.97147535 47.43221515 8.44921875 47.48828125 C6.79910042 47.49786613 6.79910042 47.49786613 5.11564636 47.50764465 C4.09481461 47.52743881 3.07398285 47.54723297 2.0222168 47.56762695 C1.12286911 47.57873001 0.22352142 47.58983307 -0.70307922 47.60127258 C-3.60443174 48.10492461 -4.28719408 48.60757932 -6 51 C-6.30012233 53.50504781 -6.41609828 55.76389846 -6.39872742 58.27018738 C-6.40537424 59.01595718 -6.41202107 59.76172699 -6.41886932 60.53009588 C-6.43756367 63.03607067 -6.43488977 65.54157072 -6.43237305 68.04760742 C-6.4413863 69.84113747 -6.45171243 71.63466134 -6.46325684 73.42817688 C-6.49090435 78.30389292 -6.50012185 83.17949234 -6.50611091 88.05527663 C-6.51547445 93.14825193 -6.54167614 98.24113942 -6.56611633 103.33406067 C-6.60984073 112.9812529 -6.63835118 122.62842815 -6.66143972 132.27568942 C-6.68845959 143.25746257 -6.73237304 154.23914763 -6.77772844 165.22085798 C-6.87065979 187.8138595 -6.94170235 210.40688487 -7 233 C-12.28 233 -17.56 233 -23 233 C-23 160.73 -23 88.46 -23 14 C-18.38 12.02 -13.76 10.04 -9 8 C-5.7411179 5.34742155 -2.85863706 2.97963757 0 0 Z " fill="#B5CCCA" transform="translate(100,202)"/>
<path d="M0 0 C0.99804007 -0.00807831 0.99804007 -0.00807831 2.01624256 -0.01631981 C4.25035967 -0.030651 6.48388856 -0.02348335 8.71803284 -0.01637268 C10.31788104 -0.02207359 11.91772518 -0.02903677 13.51756287 -0.03717041 C17.86674705 -0.05514823 22.21573 -0.05392476 26.56494021 -0.04822803 C30.19330781 -0.04514273 33.82163638 -0.05122128 37.44999844 -0.05726677 C46.00861438 -0.07132567 54.56713055 -0.06973948 63.12574768 -0.05836487 C71.96052826 -0.04688282 80.79500532 -0.06095761 89.6297459 -0.08776134 C97.21029503 -0.10990042 104.79074876 -0.11655976 112.37132794 -0.11068493 C116.9009201 -0.10730977 121.43031769 -0.10976731 125.95988274 -0.12693596 C130.21909688 -0.1423745 134.47786059 -0.13848426 138.73705673 -0.11963081 C140.30117136 -0.11593627 141.86531914 -0.11907857 143.42940331 -0.1295166 C145.56315902 -0.14267029 147.69541114 -0.1312317 149.82910156 -0.11352539 C151.02353599 -0.11331611 152.21797041 -0.11310682 153.44859982 -0.1128912 C156.4780426 0.38768005 156.4780426 0.38768005 158.86269665 2.08454037 C160.82174875 4.8777319 160.97643928 6.34815339 160.97251892 9.73912048 C160.9809079 10.82426437 160.98929688 11.90940826 160.99794006 13.0274353 C160.98670105 14.21301529 160.97546204 15.39859528 160.96388245 16.62010193 C160.96767914 17.87247147 160.97147583 19.124841 160.97538757 20.41516113 C160.98152834 23.84726067 160.96978563 27.27839702 160.94948149 30.71038246 C160.93190329 34.30263798 160.93543572 37.89487759 160.936203 41.48716736 C160.93433035 47.51968592 160.91697172 53.55200318 160.8896637 59.5844574 C160.85821321 66.55773787 160.84766753 73.53079791 160.8491348 80.50414419 C160.85048614 87.92941314 160.83660103 95.35459715 160.8182416 102.77984047 C160.81398034 104.91881254 160.81255942 107.0577709 160.81176376 109.19674683 C160.80938014 113.18299643 160.78995035 117.16906307 160.76856995 121.15525818 C160.76947632 122.34083817 160.77038269 123.52641815 160.77131653 124.7479248 C160.76278656 125.8330687 160.75425659 126.91821259 160.74546814 128.03623962 C160.74211645 128.97864754 160.73876476 129.92105545 160.73531151 130.89202118 C160.45687143 133.59305283 160.01665391 135.15386116 158.4780426 137.38768005 C155.1527623 139.77230909 151.9964437 139.64356546 147.99441528 139.65510559 C147.34524059 139.6596367 146.69606589 139.66416782 146.02721924 139.66883624 C143.85393482 139.68148733 141.68090077 139.67985946 139.50758362 139.6782074 C137.94862038 139.68419215 136.38966011 139.69099758 134.83070374 139.69856262 C130.59725298 139.71623368 126.36388306 139.72091842 122.13039899 139.72219419 C118.59652411 139.72409341 115.06266806 139.73145107 111.52880043 139.73853838 C103.19212861 139.75482358 94.85549998 139.75970716 86.51881409 139.75828552 C77.91750563 139.75708353 69.31644787 139.77819648 60.71520287 139.80977285 C53.33080443 139.83591649 45.94648798 139.84665365 38.56204361 139.8453747 C34.15146728 139.84486457 29.74111382 139.85057601 25.33058357 139.8717308 C21.18299441 139.8910815 17.03584146 139.89125964 12.888237 139.87669754 C11.36646069 139.87460449 9.84465729 139.8793399 8.32292747 139.89141846 C6.24432245 139.90684808 4.16722592 139.89758059 2.08865356 139.88215637 C0.92593713 139.88324591 -0.23677931 139.88433544 -1.43472958 139.88545799 C-5.26012389 139.26865968 -6.90695817 138.23078332 -9.5219574 135.38768005 C-10.14557648 132.84237576 -10.14557648 132.84237576 -10.14341736 129.9156189 C-10.15462616 128.80378738 -10.16583496 127.69195587 -10.17738342 126.5464325 C-10.15748856 124.72362762 -10.15748856 124.72362762 -10.13719177 122.86399841 C-10.14274078 121.58076187 -10.14828979 120.29752533 -10.15400696 118.97540283 C-10.16825321 115.45873588 -10.15119704 111.94285097 -10.12772179 108.4262588 C-10.10761628 104.74678128 -10.1134921 101.06733633 -10.11582947 97.38781738 C-10.1157759 91.20982459 -10.09601957 85.03213768 -10.06394958 78.85423279 C-10.0270404 71.70933086 -10.01827622 64.56482939 -10.0252471 57.41984457 C-10.03154928 50.54803551 -10.02080421 43.67636392 -10.00128174 36.8045826 C-9.99310211 33.87919215 -9.99039921 30.95387192 -9.99197388 28.02847099 C-9.99301492 23.94609676 -9.96885978 19.86425225 -9.94187927 15.78196716 C-9.94480988 14.56473969 -9.94774048 13.34751221 -9.95075989 12.09339905 C-9.9394101 10.98438736 -9.9280603 9.87537567 -9.91636658 8.73275757 C-9.91263786 7.76730483 -9.90890915 6.80185209 -9.90506744 5.80714321 C-9.5219574 3.38768005 -9.5219574 3.38768005 -8.40492916 1.57784271 C-5.59641662 -0.19732292 -3.30564188 0.00672695 0 0 Z M4.4780426 15.38768005 C4.38253562 16.80446916 4.35615777 18.22599247 4.35778809 19.64599609 C4.35641059 20.56259538 4.35503309 21.47919466 4.35361385 22.42356968 C4.35721196 23.44112308 4.36081007 24.45867647 4.36451721 25.50706482 C4.36439668 26.58761359 4.36427614 27.66816236 4.36415195 28.78145504 C4.36490146 32.29735269 4.37253139 35.81319807 4.38038635 39.3290863 C4.38185565 41.49245681 4.38287644 43.65582767 4.38343811 45.81919861 C4.38869235 53.86286449 4.40265341 61.90652278 4.4155426 69.95018005 C4.4361676 87.91455505 4.4567926 105.87893005 4.4780426 124.38768005 C51.0080426 124.38768005 97.5380426 124.38768005 145.4780426 124.38768005 C145.4780426 88.08768005 145.4780426 51.78768005 145.4780426 14.38768005 C120.61964575 14.3585652 120.61964575 14.3585652 95.76124573 14.33885193 C85.63013709 14.33290874 75.49903674 14.32590653 65.36793518 14.3122406 C57.99087167 14.30229434 50.61381485 14.29582676 43.23674482 14.29359156 C39.32822207 14.29228435 35.41971849 14.28919789 31.51120186 14.28195 C27.83657818 14.27519069 24.16198167 14.27306291 20.48735237 14.27457237 C18.4872465 14.27416368 16.48714362 14.26876802 14.48704529 14.26325989 C13.30768906 14.26463455 12.12833282 14.26600922 10.91323853 14.26742554 C9.366009 14.26604285 9.366009 14.26604285 7.78752232 14.26463223 C5.51523501 14.12765952 5.51523501 14.12765952 4.4780426 15.38768005 Z " fill="#010202" transform="translate(258.52195739746094,248.61231994628906)"/>
<path d="M0 0 C13.2 0 26.4 0 40 0 C40 0.33 40 0.66 40 1 C34.39 1 28.78 1 23 1 C23 26.41 23 51.82 23 78 C24.98 78.66 26.96 79.32 29 80 C31.97283733 84.459256 31.36827788 88.69088435 31.375 93.9375 C31.39949219 94.93974609 31.42398438 95.94199219 31.44921875 96.97460938 C31.47843546 104.27391624 31.47843546 104.27391624 29.2265625 107.69140625 C27 109 27 109 23 109 C23 129.79 23 150.58 23 172 C15.41 172 7.82 172 0 172 C0 115.24 0 58.48 0 0 Z " fill="#68E1F9" transform="translate(108,263)"/>
<path d="M0 0 C1.54722952 0.00138269 1.54722952 0.00138269 3.12571621 0.00279331 C4.30507244 0.00141865 5.48442867 0.00004398 6.69952297 -0.00137234 C8.65778515 0.00402058 8.65778515 0.00402058 10.65560818 0.00952244 C12.03504846 0.00980431 13.4144889 0.00964658 14.7939291 0.00907993 C18.54996147 0.00879195 22.30596218 0.01468878 26.06198716 0.02165389 C29.98312073 0.02788732 33.90425496 0.02849122 37.82539272 0.0296793 C45.25563639 0.03279265 52.68586542 0.04100608 60.11610264 0.05102879 C70.1530437 0.06427503 80.18998874 0.0696898 90.22693634 0.07553101 C106.04814196 0.08494597 121.86931669 0.10486486 137.69052029 0.12304783 C137.69052029 36.42304783 137.69052029 72.72304783 137.69052029 110.12304783 C91.16052029 110.12304783 44.63052029 110.12304783 -3.30947971 110.12304783 C-3.33010471 92.15867283 -3.35072971 74.19429783 -3.37197971 55.68554783 C-3.38108372 50.00408543 -3.39018772 44.32262302 -3.3995676 38.46899509 C-3.40408421 31.55456638 -3.40408421 31.55456638 -3.40492344 28.32212925 C-3.40646343 26.0546712 -3.40998949 23.787214 -3.41505527 21.51976109 C-3.42232921 18.09397035 -3.42338725 14.66822985 -3.4230051 11.24243259 C-3.42660321 10.2248792 -3.43020132 9.2073258 -3.43390846 8.15893745 C-3.43253097 7.24233817 -3.43115347 6.32573889 -3.42973423 5.38136387 C-3.43065602 4.57848218 -3.43157782 3.77560049 -3.43252754 2.94838905 C-3.24482912 0.16399482 -2.78488145 0.14837698 0 0 Z M19.69052029 1.12304783 C19.69052029 36.76304783 19.69052029 72.40304783 19.69052029 109.12304783 C58.30052029 109.12304783 96.91052029 109.12304783 136.69052029 109.12304783 C136.69052029 73.48304783 136.69052029 37.84304783 136.69052029 1.12304783 C98.08052029 1.12304783 59.47052029 1.12304783 19.69052029 1.12304783 Z " fill="#65D6EC" transform="translate(266.30947971343994,262.8769521713257)"/>
<path d="M0 0 C1.28163025 -0.0087616 2.5632605 -0.01752319 3.88372803 -0.02655029 C7.39628499 -0.04933862 10.90810744 -0.04051007 14.42067719 -0.02465487 C18.09704056 -0.01199307 21.77334118 -0.02373673 25.44970703 -0.03158569 C31.62348723 -0.04068152 37.79696834 -0.0286964 43.97070312 -0.00488281 C51.1077706 0.02232872 58.24412392 0.01351449 65.38117409 -0.01401484 C71.50956649 -0.03670711 77.63774394 -0.03990555 83.76616478 -0.02682149 C87.42611776 -0.01902747 91.0857351 -0.01798357 94.7456665 -0.03450394 C98.82566601 -0.05163411 102.90443508 -0.02789165 106.984375 0 C108.8048233 -0.01518173 108.8048233 -0.01518173 110.66204834 -0.03067017 C118.81323764 0.07282949 118.81323764 0.07282949 122.27001953 2.9960022 C123.87047524 6.46750604 123.78977707 8.05951913 122.4921875 11.64697266 C120.27177515 14.29843809 118.44811053 15.5052148 115.00448608 16.0158844 C111.7481009 16.16990467 108.51392676 16.18709111 105.25390625 16.16455078 C104.01275055 16.17156006 102.77159485 16.17856934 101.49282837 16.18579102 C98.09585912 16.20036657 94.69986608 16.19696961 91.30295181 16.18427467 C87.74451659 16.17413194 84.18612245 16.18354387 80.62768555 16.18981934 C74.65243052 16.19709207 68.6773734 16.18751801 62.70214844 16.16845703 C55.79862578 16.14668879 48.89557568 16.15374044 41.99206448 16.17576265 C36.05983409 16.19392747 30.12774578 16.19646976 24.19549656 16.18600798 C20.65461547 16.1797789 17.11395634 16.17892102 13.5730896 16.19215393 C9.62536314 16.2058774 5.67816399 16.18684491 1.73046875 16.16455078 C-0.02612564 16.17669617 -0.02612564 16.17669617 -1.81820679 16.18908691 C-9.71300387 16.10637945 -9.71300387 16.10637945 -13.70629883 13.79821777 C-16.06387079 10.98296566 -16.58276369 9.31958104 -16.5078125 5.64697266 C-13.26662446 -1.38339793 -6.72237491 -0.05606163 0 0 Z " fill="#060606" transform="translate(202.5078125,46.35302734375)"/>
<path d="M0 0 C15.51 0 31.02 0 47 0 C47.1546875 6.868125 47.1546875 6.868125 47.3125 13.875 C47.35802002 15.29796387 47.40354004 16.72092773 47.45043945 18.18701172 C47.53679436 26.15729111 46.82693165 32.45584842 42 39 C35.60215147 45.03432575 29.57272358 47.50929369 20.77734375 47.30859375 C13.93828886 46.54869876 9.37930102 42.81291594 4.54296875 38.171875 C-0.91380204 30.49095206 -0.36575514 22.56524682 -0.1875 13.5 C-0.125625 9.045 -0.06375 4.59 0 0 Z " fill="#F8A91A" transform="translate(46,155)"/>
<path d="M0 0 C15.51 0 31.02 0 47 0 C47.061875 4.640625 47.12375 9.28125 47.1875 14.0625 C47.22846802 16.23791382 47.22846802 16.23791382 47.27026367 18.45727539 C47.33184386 27.9916108 46.35508584 34.25467908 39.78515625 41.421875 C34.22147833 46.34031237 27.92993265 47.70049909 20.63671875 47.375 C13.44255521 46.35183007 9.19942823 42.65729856 4.54296875 37.29296875 C-0.68771828 29.51977056 -0.36701814 22.75181636 -0.1875 13.5625 C-0.125625 9.086875 -0.06375 4.61125 0 0 Z " fill="#F7A91A" transform="translate(170,155)"/>
<path d="M0 0 C15.51 0 31.02 0 47 0 C47.0825 4.434375 47.165 8.86875 47.25 13.4375 C47.28641602 14.81736084 47.32283203 16.19722168 47.36035156 17.61889648 C47.44037518 26.54604731 46.44347391 33.04000501 40.5 39.875 C39.675 40.57625 38.85 41.2775 38 42 C37.360625 42.556875 36.72125 43.11375 36.0625 43.6875 C30.46538655 47.24929947 24.4706612 47.90398943 18 47 C10.69985298 44.69186528 5.62391589 40.77035638 2 34 C0.28472766 29.60594789 -0.23848966 25.99537299 -0.1953125 21.2890625 C-0.19031738 20.16709473 -0.18532227 19.04512695 -0.18017578 17.88916016 C-0.16196777 16.4819873 -0.14375977 15.07481445 -0.125 13.625 C-0.08375 9.12875 -0.0425 4.6325 0 0 Z " fill="#F8A91A" transform="translate(419,155)"/>
<path d="M0 0 C15.51 0 31.02 0 47 0 C47.1546875 7.1465625 47.1546875 7.1465625 47.3125 14.4375 C47.35802002 15.9217749 47.40354004 17.4060498 47.45043945 18.93530273 C47.54700817 28.18160201 46.47381243 34.39909062 39.9375 41.12109375 C39.298125 41.55550781 38.65875 41.98992187 38 42.4375 C37.0409375 43.11619141 37.0409375 43.11619141 36.0625 43.80859375 C30.08878946 47.25931669 24.79383949 47.74531573 18 47 C11.44015351 45.19746827 6.63708228 40.63517559 3 35 C-0.60792696 27.75073935 -0.35051139 20.97842171 -0.1875 13 C-0.125625 8.71 -0.06375 4.42 0 0 Z " fill="#E74343" transform="translate(108,155)"/>
<path d="M0 0 C15.51 0 31.02 0 47 0 C47.1546875 6.620625 47.1546875 6.620625 47.3125 13.375 C47.35802002 14.74575684 47.40354004 16.11651367 47.45043945 17.52880859 C47.54889679 26.29595836 46.32850954 33.27600444 40.2578125 39.90136719 C35.35440765 44.51443885 29.94746407 47.09862713 23.1875 47.5 C16.77024083 47.28478704 11.15748262 44.81756225 6.3671875 40.54296875 C1.58608689 35.11770788 -0.38486494 30.01946549 -0.29296875 22.8515625 C-0.28547607 21.64838379 -0.2779834 20.44520508 -0.27026367 19.20556641 C-0.24295166 17.69397949 -0.21563965 16.18239258 -0.1875 14.625 C-0.125625 9.79875 -0.06375 4.9725 0 0 Z " fill="#E74343" transform="translate(357,155)"/>
<path d="M0 0 C15.51 0 31.02 0 47 0 C47.0825 4.24875 47.165 8.4975 47.25 12.875 C47.28641602 14.1935498 47.32283203 15.51209961 47.36035156 16.87060547 C47.43988686 25.40012449 46.50453711 32.55610243 41.10546875 39.40234375 C34.68783873 44.53906187 29.03428326 47.70468191 20.62109375 47.41015625 C13.38322572 46.27755395 7.76685829 42.50362264 3.15625 36.94140625 C0.29843151 32.14297452 -0.24401481 27.57367383 -0.1953125 22.0703125 C-0.19031738 20.90773926 -0.18532227 19.74516602 -0.18017578 18.54736328 C-0.16196777 17.0879834 -0.14375977 15.62860352 -0.125 14.125 C-0.08375 9.46375 -0.0425 4.8025 0 0 Z " fill="#F7A91A" transform="translate(295,155)"/>
<path d="M0 0 C15.18 0 30.36 0 46 0 C46.1546875 7.425 46.1546875 7.425 46.3125 15 C46.35802002 16.54558594 46.40354004 18.09117187 46.45043945 19.68359375 C46.53793435 28.36308765 45.7548097 34.0440855 39.59155273 40.46801758 C34.32460042 45.29656867 28.47752563 47.6415045 21.39453125 47.33984375 C13.5933492 46.23266131 8.36038299 43.12565539 3.375 37.09765625 C0.29758681 32.40285261 -0.24280985 28.53015718 -0.1953125 22.94921875 C-0.19031738 21.74354248 -0.18532227 20.53786621 -0.18017578 19.2956543 C-0.16196777 17.77496338 -0.14375977 16.25427246 -0.125 14.6875 C-0.08375 9.840625 -0.0425 4.99375 0 0 Z " fill="#E74343" transform="translate(233,155)"/>
<path d="M0 0 C-2.86991253 2.2269991 -5.82640257 4.1286632 -8.9375 6 C-28.09417688 18.19991305 -42.48994539 35.98069765 -49 58 C-49.98785739 62.48519121 -50.72841029 67.00435817 -51.421875 71.54296875 C-52 75 -52 75 -53 77 C-60.26 77 -67.52 77 -75 77 C-75 70.95860212 -74.75175538 66.87299462 -72.9375 61.375 C-72.71416992 60.68696289 -72.49083984 59.99892578 -72.26074219 59.29003906 C-64.50867232 36.3291464 -49.69733241 18.71067472 -28.125 7.75 C-19.36516913 3.44067813 -9.95878782 -0.92639887 0 0 Z " fill="#B5CCCA" transform="translate(206,16)"/>
<path d="M0 0 C13.2 0 26.4 0 40 0 C40.495 4.16625 40.99 8.3325 41.5 12.625 C41.65662109 13.92775879 41.81324219 15.23051758 41.97460938 16.57275391 C42.09642578 17.61351074 42.21824219 18.65426758 42.34375 19.7265625 C42.46943359 20.78439941 42.59511719 21.84223633 42.72460938 22.93212891 C42.9949763 25.94403568 43 28.97598269 43 32 C27.82 32 12.64 32 -3 32 C-2.23669907 21.31378694 -1.18310143 10.64791288 0 0 Z " fill="#E15551" transform="translate(236,108)"/>
<path d="M0 0 C12.87 0 25.74 0 39 0 C41.08802194 6.26406583 43.16855405 12.52634977 45.1875 18.8125 C45.59645508 20.06063477 45.59645508 20.06063477 46.01367188 21.33398438 C46.27083984 22.13771484 46.52800781 22.94144531 46.79296875 23.76953125 C47.0252417 24.48729736 47.25751465 25.20506348 47.49682617 25.94458008 C48 28 48 28 48 32 C33.15 32 18.3 32 3 32 C1 19 1 19 0 0 Z " fill="#F9CC59" transform="translate(291,108)"/>
<path d="M0 0 C1.64510941 0.00015915 3.29022379 0.00585551 4.93530273 0.01586914 C6.23164894 0.01799156 6.23164894 0.01799156 7.55418396 0.02015686 C10.32578941 0.025773 13.09731528 0.0383282 15.86889648 0.05102539 C17.74324428 0.05603831 19.61759334 0.06060158 21.49194336 0.06469727 C26.09679192 0.07574767 30.70158069 0.09302309 35.30639648 0.11352539 C35.18912266 2.63491269 35.06256783 5.15534942 34.93139648 7.67602539 C34.88499023 8.70373047 34.88499023 8.70373047 34.83764648 9.75219727 C34.43024443 17.3230855 33.32025432 24.5095916 32.30639648 32.11352539 C17.45639648 32.11352539 2.60639648 32.11352539 -12.69360352 32.11352539 C-12.03191432 27.48170099 -11.38637548 23.61119526 -10.09985352 19.21508789 C-9.79176758 18.1593457 -9.48368164 17.10360352 -9.16625977 16.01586914 C-8.8452832 14.9343457 -8.52430664 13.85282227 -8.19360352 12.73852539 C-7.87262695 11.63379883 -7.55165039 10.52907227 -7.22094727 9.39086914 C-4.50095403 0.13833985 -4.50095403 0.13833985 0 0 Z " fill="#FACC59" transform="translate(185.693603515625,107.886474609375)"/>
<path d="M0 0 C12.87 0 25.74 0 39 0 C36.7471343 10.13789564 36.7471343 10.13789564 35.52734375 14.40234375 C35.26759766 15.31177734 35.00785156 16.22121094 34.74023438 17.15820312 C34.47533203 18.07537109 34.21042969 18.99253906 33.9375 19.9375 C33.5343457 21.35385742 33.5343457 21.35385742 33.12304688 22.79882812 C31.13147321 29.73705357 31.13147321 29.73705357 30 32 C15.48 32 0.96 32 -14 32 C-10.625 21.875 -10.625 21.875 -8.30078125 17.08984375 C-7.86161377 16.178396 -7.42244629 15.26694824 -6.9699707 14.32788086 C-6.42300537 13.20905518 -5.87604004 12.09022949 -5.3125 10.9375 C-2.6828125 5.5234375 -2.6828125 5.5234375 0 0 Z " fill="#E15551" transform="translate(127,108)"/>
<path d="M0 0 C12.87 0 25.74 0 39 0 C41.31 4.90875 43.62 9.8175 46 14.875 C46.73089844 16.42300293 47.46179688 17.97100586 48.21484375 19.56591797 C48.78936667 20.79119857 49.36360505 22.01661265 49.9375 23.2421875 C50.23978516 23.87970947 50.54207031 24.51723145 50.85351562 25.17407227 C53 29.7718564 53 29.7718564 53 32 C38.48 32 23.96 32 9 32 C6.50847565 25.14830805 4.1557372 18.49968884 2.25 11.5 C2.02957031 10.71625 1.80914062 9.9325 1.58203125 9.125 C0.72194187 6.0051727 0 3.25164227 0 0 Z " fill="#E15551" transform="translate(346,108)"/>
<path d="M0 0 C31.00666833 -4.65529745 31.00666833 -4.65529745 39.97277832 1.31323242 C48.2831053 8.73658799 53.79095921 19.82328951 58 30 C58 30.66 58 31.32 58 32 C43.81 32 29.62 32 15 32 C12.36 26.72 9.72 21.44 7 16 C4.12846191 10.34589382 4.12846191 10.34589382 1.25 4.6953125 C0 2 0 2 0 0 Z " fill="#F9CC59" transform="translate(401,108)"/>
<path d="M0 0 C-0.88178956 2.011099 -1.76361741 4.02218099 -2.64572144 6.03314209 C-3.31056166 7.55014014 -3.97339797 9.06801693 -4.63500977 10.58642578 C-7.85347089 17.87373042 -11.42090998 24.84181997 -15 32 C-29.19 32 -43.38 32 -58 32 C-45.57419202 0.93548006 -32.84535443 -4.3942367 0 0 Z " fill="#F9CC59" transform="translate(111,108)"/>
<path d="M0 0 C3.00339193 2.00226129 3.81463343 3.25853373 4.6875 6.75 C2.93021518 15.05716459 -6.98028773 22.12654549 -12.80078125 27.93359375 C-14.17716011 29.3114077 -14.17716011 29.3114077 -15.5813446 30.71705627 C-17.50679608 32.64396949 -19.43401307 34.56909375 -21.36254883 36.49291992 C-23.83519715 38.95982339 -26.30326319 41.43125536 -28.77006245 43.904006 C-31.13204714 46.27046121 -33.49782089 48.63311268 -35.86328125 50.99609375 C-36.74969803 51.88453476 -37.63611481 52.77297577 -38.5493927 53.68833923 C-39.77658272 54.91080101 -39.77658272 54.91080101 -41.02856445 56.15795898 C-41.74913528 56.87773422 -42.46970612 57.59750946 -43.21211243 58.33909607 C-45.55902171 60.51931753 -46.6569295 60.96270973 -49.875 61.3125 C-53 61 -53 61 -55.375 59.4375 C-57.62152279 56.06771582 -57.41380913 53.99635907 -57 50 C-55.14891052 47.26002502 -55.14891052 47.26002502 -52.52124023 44.61547852 C-52.04480576 44.1267778 -51.56837128 43.63807709 -51.07749939 43.13456726 C-49.50496474 41.53133777 -47.90833899 39.95495062 -46.30859375 38.37890625 C-45.20332491 37.26891914 -44.09909672 36.15789491 -42.99586487 35.04588318 C-40.68252354 32.72223525 -38.35703063 30.41168443 -36.0222168 28.10961914 C-33.03448226 25.16176855 -30.07928294 22.18359827 -27.13249111 19.19488621 C-24.8588036 16.89586956 -22.56866286 14.61382903 -20.27324104 12.33653069 C-19.17690526 11.24485515 -18.08571988 10.14798132 -16.99990654 9.04583931 C-15.47777835 7.50587235 -13.93489391 5.99021833 -12.38452148 4.47875977 C-11.07547096 3.17806297 -11.07547096 3.17806297 -9.73997498 1.85108948 C-6.25131215 -0.50580324 -4.13076964 -0.47524618 0 0 Z " fill="#020303" transform="translate(368,293)"/>
<path d="M0 0 C-3.12729614 3.86602751 -6.15718789 7.24093619 -10.05078125 10.33984375 C-16.71937361 15.84573873 -22.09010196 20.44152212 -23.26171875 29.37890625 C-23.71352591 35.33419609 -23.2749043 40.9521054 -23 47 C-30.92 47 -38.84 47 -47 47 C-50.06440276 30.26364648 -50.06440276 30.26364648 -44.78662109 22.45361328 C-33.20128571 6.96388108 -20.27063345 -5.03538028 0 0 Z " fill="#516666" transform="translate(93,450)"/>
<path d="M0 0 C13.53 0 27.06 0 41 0 C41 5.28 41 10.56 41 16 C28.13 16 15.26 16 2 16 C1.34 10.72 0.68 5.44 0 0 Z " fill="#F6A81A" transform="translate(394,77)"/>
<path d="M0 0 C13.53 0 27.06 0 41 0 C40.34 5.28 39.68 10.56 39 16 C26.13 16 13.26 16 0 16 C0 10.72 0 5.44 0 0 Z " fill="#F6A81A" transform="translate(77,77)"/>
<path d="M0 0 C2.5625 2.125 2.5625 2.125 4 5 C3.5681208 12.22333169 -0.70706769 15.48363261 -5.625 20.3125 C-6.42035156 21.13556641 -7.21570313 21.95863281 -8.03515625 22.80664062 C-14.66005852 29.40434708 -14.66005852 29.40434708 -18.8984375 30.16796875 C-22 30 -22 30 -25 28 C-27.05118721 24.92321919 -27.47428828 23.64035807 -26.82470703 20.04638672 C-24.94282544 15.37678 -20.96676947 12.03029368 -17.4375 8.5625 C-16.25704102 7.32209961 -16.25704102 7.32209961 -15.05273438 6.05664062 C-10.04046073 1.05263124 -7.16286169 -1.34009776 0 0 Z " fill="#020404" transform="translate(322,293)"/>
<path d="M0 0 C3.5 0.5625 3.5 0.5625 5.6875 1.91015625 C8.59944291 6.17138304 8.07806383 10.52738313 8 15.5625 C8.01546875 16.56023437 8.0309375 17.55796875 8.046875 18.5859375 C8.00809194 25.81897752 8.00809194 25.81897752 5.6875 29.21484375 C2.41763777 31.22931245 0.25338767 31.16572302 -3.5 30.5625 C-5.9805718 28.39642927 -7.31321498 26.64381761 -7.88085938 23.35766602 C-8.03897345 20.74750044 -8.04546719 18.17686355 -8 15.5625 C-8.01546875 14.67304688 -8.0309375 13.78359375 -8.046875 12.8671875 C-8.02169499 8.64953558 -7.85560352 6.16871204 -5.6875 2.47265625 C-3.5 0.5625 -3.5 0.5625 0 0 Z " fill="#020506" transform="translate(131.5,341.4375)"/>
</svg>
