<?xml version="1.0" encoding="UTF-8" standalone="no"?>
<!-- Created with Inkscape (http://www.inkscape.org/) -->
<svg xmlns:inkscape="http://www.inkscape.org/namespaces/inkscape" xmlns:rdf="http://www.w3.org/1999/02/22-rdf-syntax-ns#" xmlns="http://www.w3.org/2000/svg" xmlns:xlink="http://www.w3.org/1999/xlink" xmlns:ns1="http://sozi.baierouge.fr" xmlns:cc="http://creativecommons.org/ns#" xmlns:sodipodi="http://sodipodi.sourceforge.net/DTD/sodipodi-0.dtd" xmlns:dc="http://purl.org/dc/elements/1.1/" id="svg2" xml:space="preserve" viewBox="0 0 208.95 596.6" version="1.1" inkscape:version="0.91 r13725">
  <defs id="defs6">
    <clipPath id="clipPath18">
      <path id="path20" d="m25.801 40.959c16.16 4.695 35.679 7.043 58.558 7.043s42.403-2.348 58.563-7.043c16.156-4.668 24.238-10.32 24.238-16.957 0-6.617-8.082-12.27-24.238-16.961-16.19-4.695-35.71-7.039-58.561-7.039s-42.371 2.344-58.558 7.039c-16.16 4.691-24.242 10.344-24.242 16.961 0 6.637 8.082 12.289 24.242 16.957z" inkscape:connector-curvature="0"/>
    </clipPath>
    <clipPath id="clipPath26">
      <path id="path28" d="m1.25 459.92h208.75v211.28h-208.75v-211.28z" inkscape:connector-curvature="0"/>
    </clipPath>
    <radialGradient id="radialGradient30" gradientUnits="userSpaceOnUse" cy="566.6" cx="105.45" r="103.5">
      <stop id="stop32" style="stop-color:#ffffff;stop-opacity:0.749" offset="0"/>
      <stop id="stop34" style="stop-color:#ffffff;stop-opacity:0" offset="0.902"/>
      <stop id="stop38" style="stop-color:#ffffff;stop-opacity:0" offset="1"/>
    </radialGradient>
    <mask id="mask40">
      <g id="g42">
        <g id="g44" clip-path="url(#clipPath26)">
          <path id="path46" style="fill:url(#radialGradient30)" d="m1.25 459.92h208.75v211.28h-208.75v-211.28z" inkscape:connector-curvature="0"/>
        </g>
      </g>
    </mask>
    <radialGradient id="radialGradient50" gradientUnits="userSpaceOnUse" cy="566.6" cx="105.45" r="103.5">
      <stop id="stop52" style="stop-color:#000000" offset="0"/>
      <stop id="stop54" style="stop-color:#000000" offset="0.902"/>
      <stop id="stop56" style="stop-color:#000000" offset="1"/>
    </radialGradient>
    <clipPath id="clipPath86">
      <path id="path88" d="m110 425.96c-0.801-4.828-1.281-9.359-1.441-13.602-0.504-11.304-0.532-96.535-0.079-255.68h0.079v-29.797h-0.36c0-6.535 0.121-12.563 0.36-18.082 0.32-8.293 1.785-17.758 4.402-28.399h-72.481c2.586 10.371 4.067 19.84 4.438 28.399 0.187 4.375 0.309 10.402 0.359 18.082h-0.359v29.797h0.082c0.453 158.48 0.426 243.71-0.082 255.68-0.133 3.922-0.641 8.641-1.52 14.16 7.414-0.05 29.614-0.238 66.602-0.558z" inkscape:connector-curvature="0"/>
    </clipPath>
    <clipPath id="clipPath94">
      <path id="path96" d="m50 62.5h91.25v433.75h-91.25v-433.75z" inkscape:connector-curvature="0"/>
    </clipPath>
    <linearGradient id="linearGradient98" y2="279.77" gradientUnits="userSpaceOnUse" x2="144.48" y1="279.77" x1="54.625">
      <stop id="stop100" style="stop-color:#ffffff;stop-opacity:.29799" offset="0"/>
      <stop id="stop102" style="stop-color:#ffffff;stop-opacity:0" offset=".26270"/>
      <stop id="stop104" style="stop-color:#ffffff;stop-opacity:.15689" offset="0.4"/>
      <stop id="stop106" style="stop-color:#ffffff;stop-opacity:.32160" offset=".55690"/>
      <stop id="stop108" style="stop-color:#ffffff;stop-opacity:.41959" offset=".67450"/>
      <stop id="stop110" style="stop-color:#ffffff;stop-opacity:.45879" offset=".74120"/>
      <stop id="stop112" style="stop-color:#ffffff;stop-opacity:.52160" offset=".78430"/>
      <stop id="stop114" style="stop-color:#ffffff;stop-opacity:.69020" offset=".86670"/>
      <stop id="stop116" style="stop-color:#ffffff;stop-opacity:.96080" offset=".98430"/>
      <stop id="stop118" style="stop-color:#ffffff" offset="1"/>
    </linearGradient>
    <mask id="mask120">
      <g id="g122">
        <g id="g124" clip-path="url(#clipPath94)">
          <path id="path126" style="fill:url(#linearGradient98)" d="m50 62.5h91.25v433.75h-91.25v-433.75z" inkscape:connector-curvature="0"/>
        </g>
      </g>
    </mask>
    <linearGradient id="linearGradient130" y2="279.77" gradientUnits="userSpaceOnUse" x2="144.48" y1="279.77" x1="54.625">
      <stop id="stop132" style="stop-color:#0a0602" offset="0"/>
      <stop id="stop134" style="stop-color:#897733" offset=".26270"/>
      <stop id="stop136" style="stop-color:#584c1e" offset="0.4"/>
      <stop id="stop138" style="stop-color:#241e08" offset=".55690"/>
      <stop id="stop140" style="stop-color:#040402" offset=".67450"/>
      <stop id="stop142" style="stop-color:#000000" offset=".74120"/>
      <stop id="stop144" style="stop-color:#0b0903" offset=".78430"/>
      <stop id="stop146" style="stop-color:#443a18" offset=".86670"/>
      <stop id="stop148" style="stop-color:#978440" offset=".98430"/>
      <stop id="stop150" style="stop-color:#a28e45" offset="1"/>
    </linearGradient>
    <clipPath id="clipPath170">
      <path id="path172" d="m35.48 88.76c0 1.066 1.465 2.215 4.399 3.441l4.402 1.559v-3.719c1.117-1.094 3.305-2.176 6.559-3.242 6.508-2.16 15.094-3.239 25.762-3.239h0.117c10.64 0 19.215 1.079 25.722 3.239 2.024 0.668 3.731 1.414 5.118 2.242l1.441 1v3.719c1.465-0.399 2.934-0.918 4.398-1.559 2.934-1.226 4.403-2.375 4.403-3.441 0-0.211-0.055-0.426-0.16-0.641 1.89-7.172 3.398-12.277 4.519-15.316l1.762-4.762-0.363-0.762c1.734-0.929 2.601-1.851 2.601-2.758 0-0.265-0.082-0.535-0.238-0.8 2.609-9.625 4.449-15.895 5.516-18.801l0.56-1.438c3.785-1.066 5.68-2.347 5.68-3.84 0-0.214-0.067-0.562-0.2-1.042l2.719-8c-0.078-1.227-0.535-2.641-1.359-4.239-1.547-3.015-4.067-5.773-7.563-8.281-10.91-7.785-29.22-11.68-54.96-11.68-25.656 0-43.894 3.641-54.722 10.918-5.493 3.684-8.438 7.574-8.84 11.684l2.722 10.519c-0.027 1.227 1.282 2.321 3.918 3.282l0.762 2.117c1.442 3.867 3.348 10.387 5.719 19.558 0 1.043 1.109 2.094 3.32 3.161l-0.16 0.402 1.762 4.758c1.172 3.148 2.734 8.468 4.679 15.961z" inkscape:connector-curvature="0"/>
    </clipPath>
    <clipPath id="clipPath178">
      <path id="path180" d="m15 478.75h161.25v110h-161.25v-110z" inkscape:connector-curvature="0"/>
    </clipPath>
    <linearGradient id="linearGradient182" y2="534" gradientUnits="userSpaceOnUse" x2="175.25" y1="534" x1="15.95">
      <stop id="stop184" style="stop-color:#ffffff;stop-opacity:.29799" offset="0"/>
      <stop id="stop186" style="stop-color:#ffffff;stop-opacity:0" offset=".26270"/>
      <stop id="stop188" style="stop-color:#ffffff;stop-opacity:.68631" offset="1"/>
    </linearGradient>
    <mask id="mask190">
      <g id="g192">
        <g id="g194" clip-path="url(#clipPath178)">
          <path id="path196" style="fill:url(#linearGradient182)" d="m15 478.75h161.25v110h-161.25v-110z" inkscape:connector-curvature="0"/>
        </g>
      </g>
    </mask>
    <linearGradient id="linearGradient200" y2="534" gradientUnits="userSpaceOnUse" x2="175.25" y1="534" x1="15.95">
      <stop id="stop202" style="stop-color:#000000" offset="0"/>
      <stop id="stop204" style="stop-color:#000000" offset="1"/>
    </linearGradient>
    <clipPath id="clipPath214">
      <path id="path216" d="m116.28 424.6 9.442 3.199c-1.016-8.692-1.535-14.625-1.563-17.801v-4.438l-1.84-1.64c-1.758-1.309-4.039-2.508-6.84-3.602-8.984-3.492-21.414-5.238-37.281-5.238h-2.359c-16.133 0-28.813 1.785-38.039 5.359-4.641 1.786-7.653 3.575-9.039 5.36l-0.121 4.48c-0.082 3.254-0.719 9.332-1.922 18.238l9.84-3.398 40.242-5 39.48 4.481z" inkscape:connector-curvature="0"/>
    </clipPath>
    <clipPath id="clipPath222">
      <path id="path224" d="m32.5 60h125v43.75h-125v-43.75z" inkscape:connector-curvature="0"/>
    </clipPath>
    <linearGradient id="linearGradient226" y2="81.85" gradientUnits="userSpaceOnUse" x2="137.97" y1="81.85" x1="34.725">
      <stop id="stop228" style="stop-color:#ffffff;stop-opacity:.29799" offset="0"/>
      <stop id="stop230" style="stop-color:#ffffff;stop-opacity:0" offset=".26270"/>
      <stop id="stop232" style="stop-color:#ffffff;stop-opacity:.68631" offset="1"/>
    </linearGradient>
    <mask id="mask234">
      <g id="g236">
        <g id="g238" clip-path="url(#clipPath222)">
          <path id="path240" style="fill:url(#linearGradient226)" d="m32.5 60h125v43.75h-125v-43.75z" inkscape:connector-curvature="0"/>
        </g>
      </g>
    </mask>
    <linearGradient id="linearGradient244" y2="81.85" gradientUnits="userSpaceOnUse" x2="137.97" y1="81.85" x1="34.725">
      <stop id="stop246" style="stop-color:#000000" offset="0"/>
      <stop id="stop248" style="stop-color:#000000" offset="1"/>
    </linearGradient>
    <clipPath id="clipPath258">
      <path id="path260" d="m137.84 432.2-0.039-5.402-2.36-2c-2.269-1.625-5.203-3.106-8.8-4.442-11.52-4.293-27.469-6.437-47.84-6.437h-3.039c-20.723 0-37.028 2.187-48.922 6.558-5.945 2.188-9.813 4.375-11.602 6.563l-0.16 5.519c-0.105 4-0.93 11.454-2.476 22.36l12.679-4.16 51.719-6.121 50.68 5.48 12.16 3.922c-1.309-10.668-1.973-17.949-2-21.84z" inkscape:connector-curvature="0"/>
    </clipPath>
    <clipPath id="clipPath266">
      <path id="path268" d="m15 27.5h160v52.5h-160v-52.5z" inkscape:connector-curvature="0"/>
    </clipPath>
    <linearGradient id="linearGradient270" y2="53.575" gradientUnits="userSpaceOnUse" x2="174.8" y1="53.575" x1="15.75">
      <stop id="stop272" style="stop-color:#ffffff;stop-opacity:.29799" offset="0"/>
      <stop id="stop274" style="stop-color:#ffffff;stop-opacity:0" offset=".26270"/>
      <stop id="stop276" style="stop-color:#ffffff;stop-opacity:.68631" offset="1"/>
    </linearGradient>
    <mask id="mask278">
      <g id="g280">
        <g id="g282" clip-path="url(#clipPath266)">
          <path id="path284" style="fill:url(#linearGradient270)" d="m15 27.5h160v52.5h-160v-52.5z" inkscape:connector-curvature="0"/>
        </g>
      </g>
    </mask>
    <linearGradient id="linearGradient288" y2="53.575" gradientUnits="userSpaceOnUse" x2="174.8" y1="53.575" x1="15.75">
      <stop id="stop290" style="stop-color:#000000" offset="0"/>
      <stop id="stop292" style="stop-color:#000000" offset="1"/>
    </linearGradient>
    <clipPath id="clipPath302">
      <path id="path304" d="m152.4 477.28c0-1.972-0.41-4.988-1.238-9.039l-1.238-5.441c0 0.242-0.363-0.801-1.082-3.121-1.492-3.039-4.149-5.84-7.961-8.399-12.481-8.426-34.453-12.64-65.918-12.64-31.441 0-53.336 3.961-65.684 11.878-3.757 2.403-6.371 5.016-7.839 7.84-0.692 1.364-1.012 2.321-0.958 2.883l-0.48 16.04c1.438-0.719 4.121-1.719 8.039-3 4.055-1.332 6.734-2.304 8.039-2.922 3.309-0.824 7.602-2.039 12.883-3.636 5.094-1.547 8.984-2.641 11.68-3.282 9.281-2.214 20.718-3.32 34.32-3.32 13.598 0 25.039 1.106 34.316 3.32 2.696 0.641 6.602 1.735 11.723 3.282 5.254 1.597 9.547 2.812 12.879 3.636 1.332 0.618 4.426 1.59 9.281 2.922 4.742 1.305 7.824 2.305 9.238 3z" inkscape:connector-curvature="0"/>
    </clipPath>
    <clipPath id="clipPath310">
      <path id="path312" d="m6.0191e-7 0h191.25v48.75h-191.25v-48.75z" inkscape:connector-curvature="0"/>
    </clipPath>
    <linearGradient id="linearGradient314" y2="24.15" gradientUnits="userSpaceOnUse" x2="190.5" y1="24.15">
      <stop id="stop316" style="stop-color:#ffffff;stop-opacity:.29799" offset="0"/>
      <stop id="stop318" style="stop-color:#ffffff;stop-opacity:0" offset=".26270"/>
      <stop id="stop320" style="stop-color:#ffffff;stop-opacity:.68631" offset="1"/>
    </linearGradient>
    <mask id="mask322">
      <g id="g324">
        <g id="g326" clip-path="url(#clipPath310)">
          <path id="path328" style="fill:url(#linearGradient314)" d="m6.0191e-7 0h191.25v48.75h-191.25v-48.75z" inkscape:connector-curvature="0"/>
        </g>
      </g>
    </mask>
    <linearGradient id="linearGradient332" y2="24.15" gradientUnits="userSpaceOnUse" x2="190.5" y1="24.15">
      <stop id="stop334" style="stop-color:#000000" offset="0"/>
      <stop id="stop336" style="stop-color:#000000" offset="1"/>
    </linearGradient>
    <clipPath id="clipPath344">
      <path id="path346" d="m133.88 471.36c1.336 0.618 4.426 1.59 9.281 2.922 4.746 1.305 7.828 2.305 9.242 3 0-1.972-0.414-4.988-1.242-9.039l-1.238-5.441c0-0.055-0.055-0.282-0.16-0.68-0.215-0.906-0.574-1.84-1.082-2.801-1.758-3.304-4.852-6.304-9.282-9-1.011-9.172-1.531-15.215-1.558-18.117l-0.039-5.402-2.68-2.239c-2.617-1.789-6.027-3.402-10.242-4.839-0.453-4.43-0.691-7.668-0.719-9.719v-4.442l-3.199-2.558c-3.199-1.977-7.414-3.602-12.641-4.883l-0.121-42.039c-0.078-56.105 0.016-122.58 0.281-199.4h0.082v-29.797h-0.363l0.363-18.082c0.184-4.559 0.758-9.692 1.719-15.399 5.012-1.652 7.52-3.199 7.52-4.64l-0.039-0.321-0.121-0.32 1.597-5.918v-0.043l0.321-1.078 0.043-0.039 0.957-3.281 0.043-0.203 0.277-0.957 0.043-0.083 0.64-2.078 0.278-0.761 0.039-0.161 2.043-5.48-0.36-0.758 1-0.601 0.079-0.039 0.359-0.282 0.082-0.039 0.32-0.32h0.039l0.282-0.359 0.039-0.039 0.242-0.403 0.078-0.238 0.043-0.082 0.039-0.36-0.039-0.359-0.043-0.039-0.16-0.402c1.176-4.481 2.336-8.641 3.48-12.481v-0.039l0.243-0.758v-0.043l0.718-2.238 0.039-0.082 0.16-0.559 0.083-0.199 0.359-1.082 0.039-0.199 0.16-0.398 0.039-0.161 0.641-1.761 0.121-0.239c1.226-0.347 2.254-0.722 3.078-1.121l0.359-0.16 0.121-0.082 0.442-0.238 0.719-0.52 0.441-0.441 0.117-0.16 0.082-0.156 0.117-0.161 0.122-0.363 0.039-0.078 0.043-0.359-0.043-0.442-0.039-0.039-0.122-0.558 2.719-8v-0.321l-0.039-0.039v-0.082l-0.121-0.68-0.039-0.039-0.039-0.238-0.039-0.043-0.043-0.238-0.039-0.082-0.082-0.238v-0.083l-0.438-1.16-0.16-0.281-0.039-0.117-0.16-0.32-0.043-0.122-0.199-0.359-0.039-0.117-0.52-0.84-0.039-0.082-0.281-0.402-0.043-0.117-0.32-0.442-0.039-0.039-0.36-0.519c-0.64-0.883-1.48-1.817-2.519-2.801l-0.598-0.559-0.121-0.082-0.563-0.48-0.117-0.121-0.558-0.477-0.204-0.121-0.757-0.602-2.321-1.558-0.918-0.559-3.16-1.683-5.441-2.239c-1.442-0.535-2.934-1.011-4.481-1.441l-8.76-2.04-16.56-2c-0.641-0.055-1.121-0.082-1.438-0.082l-8.402-0.317-18.64 0.438c-0.586 0.055-1.04 0.082-1.36 0.082l-1.082 0.121c-0.289 0-0.73 0.023-1.316 0.078l-8.84 1.043-6.481 1.156-3.402 0.801c-1.625 0.399-3.199 0.84-4.719 1.32h-0.039l-1.402 0.481-0.156 0.039-8.082 3.48-2.039 1.161-0.723 0.48-0.078 0.082-0.801 0.52c-2.559 1.785-4.531 3.707-5.918 5.757l-0.602 0.961c-0.933 1.52-1.507 3.039-1.718 4.559l1.16 4.48v0.039l0.199 0.84 0.039 0.121 1.32 5.039 0.04 0.485 0.042 0.117 0.2 0.359v0.039l0.316 0.442 0.082 0.078 0.402 0.32 0.04 0.043 0.558 0.399h0.039l0.641 0.359c0.402 0.188 0.922 0.399 1.562 0.641l0.758 2.117c1.442 3.867 3.348 10.387 5.719 19.562l0.082 0.399 0.199 0.441v0.039l0.281 0.36 0.399 0.441h0.039l0.441 0.359 0.082 0.083 0.477 0.316h0.043l1.277 0.723-0.117 0.277v0.043l-0.043 0.078 1.762 4.762c1.172 3.148 2.734 8.465 4.679 15.957 0 1.469 2.575 3.027 7.719 4.683 0.961 5.707 1.535 10.825 1.723 15.36 0.183 4.375 0.305 10.398 0.359 18.078h-0.359v29.801h0.078c0.188 60.988 0.281 116.7 0.281 167.12v15.039c0 27.629-0.054 47.402-0.16 59.32-5.359 1.309-9.695 2.973-13 5-1.652 1.016-2.773 1.895-3.359 2.641l-0.121 4.48c-0.028 1.414-0.321 4.707-0.879 9.879-4.028 1.414-7.321 2.988-9.883 4.719-1.277 0.855-2.16 1.574-2.641 2.16l-0.16 5.52c-0.051 2.32-0.57 7.523-1.558 15.601-5.547 2.695-9.399 5.801-11.559 9.32-1.039 1.707-1.535 2.961-1.481 3.762l-0.48 16.04c1.441-0.722 4.121-1.722 8.039-3 4.055-1.336 6.734-2.308 8.043-2.922 3.305-0.824 7.598-2.039 12.879-3.64 5.094-1.543 8.988-2.637 11.68-3.278 9.281-2.214 20.722-3.32 34.32-3.32 13.601 0 25.039 1.106 34.32 3.32 2.692 0.641 6.598 1.735 11.719 3.278 5.254 1.601 9.547 2.816 12.879 3.64z" inkscape:connector-curvature="0"/>
    </clipPath>
    <clipPath id="clipPath352">
      <path id="path354" d="m6.0191e-7 71.85h191.25v588.75h-191.25v-588.75z" inkscape:connector-curvature="0"/>
    </clipPath>
    <radialGradient id="radialGradient356" gradientUnits="userSpaceOnUse" cy="330.3" cx="93.25" r="294.69">
      <stop id="stop358" style="stop-color:#ffffff;stop-opacity:0" offset="0"/>
      <stop id="stop360" style="stop-color:#ffffff;stop-opacity:.47840" offset=".89020"/>
      <stop id="stop364" style="stop-color:#ffffff;stop-opacity:.67840" offset="1"/>
    </radialGradient>
    <mask id="mask366">
      <g id="g368">
        <g id="g370" clip-path="url(#clipPath352)">
          <path id="path372" style="fill:url(#radialGradient356)" d="m6.0191e-7 71.85h191.25v588.75h-191.25v-588.75z" inkscape:connector-curvature="0"/>
        </g>
      </g>
    </mask>
    <radialGradient id="radialGradient376" gradientUnits="userSpaceOnUse" cy="330.3" cx="93.25" r="294.69">
      <stop id="stop378" style="stop-color:#000000" offset="0"/>
      <stop id="stop380" style="stop-color:#000000" offset=".89020"/>
      <stop id="stop382" style="stop-color:#000000" offset="1"/>
    </radialGradient>
  </defs>
  <g id="g10" transform="matrix(1.25 0 0 -1.25 0 596.6)">
    <g id="g12">
      <g id="g14">
        <g id="g16" clip-path="url(#clipPath18)">
          <g id="g22" transform="matrix(.8 0 0 .23192 -4.8153e-7 -107.38)">
            <g id="g48" mask="url(#mask40)">
              <path id="path58" style="fill-rule:evenodd;fill:url(#radialGradient50)" d="m25.801 40.959c16.16 4.695 35.679 7.043 58.558 7.043s42.403-2.348 58.563-7.043c16.156-4.668 24.238-10.32 24.238-16.957 0-6.617-8.082-12.27-24.238-16.961-16.19-4.695-35.71-7.039-58.561-7.039s-42.371 2.344-58.558 7.039c-16.16 4.691-24.242 10.344-24.242 16.961 0 6.637 8.082 12.289 24.242 16.957z" inkscape:connector-curvature="0"/>
            </g>
          </g>
        </g>
      </g>
      <path id="path60" style="fill-rule:evenodd;fill:#9d9153" d="m110 425.96c-0.801-4.828-1.281-9.359-1.441-13.602-0.504-11.304-0.532-96.535-0.079-255.68h0.079v-29.797h-0.36c0-6.535 0.121-12.563 0.36-18.082 0.32-8.293 1.785-17.758 4.402-28.399h-72.481c2.586 10.371 4.067 19.84 4.438 28.399 0.187 4.375 0.309 10.402 0.359 18.082h-0.359v29.797h0.082c0.453 158.48 0.426 243.71-0.082 255.68-0.133 3.922-0.641 8.641-1.52 14.16 7.414-0.05 29.614-0.238 66.602-0.558z" inkscape:connector-curvature="0"/>
      <path id="path62" style="fill-rule:evenodd;fill:#837646" d="m45.281 338.84c1.305 2.109 2.731 3.16 4.281 3.16 2.211 0 4.106-1.984 5.68-5.957 1.547-3.977 2.32-8.789 2.32-14.441 0-5.629-0.773-10.426-2.32-14.399-1.574-4-3.469-6-5.68-6-1.55 0-2.976 1.066-4.281 3.199v34.438z" inkscape:connector-curvature="0"/>
      <path id="path64" style="fill-rule:evenodd;fill:#837646" d="m49 262.36c0.719 1.094 1.574 1.641 2.559 1.641 1.015 0 1.867-0.547 2.562-1.641 0.691-1.09 1.039-2.41 1.039-3.957s-0.348-2.867-1.039-3.961c-0.723-1.093-1.574-1.64-2.562-1.64-0.985 0-1.84 0.547-2.559 1.64-0.695 1.094-1.039 2.414-1.039 3.961s0.344 2.867 1.039 3.957z" inkscape:connector-curvature="0"/>
      <path id="path66" style="fill-rule:evenodd;fill:#837646" d="m101.88 256.88c0.855-1.574 1.281-3.469 1.281-5.68 0-2.215-0.426-4.094-1.281-5.641-0.852-1.574-1.891-2.359-3.117-2.359-1.227 0-2.266 0.785-3.121 2.359-0.852 1.547-1.282 3.426-1.282 5.641 0 2.211 0.43 4.106 1.282 5.68 0.855 1.547 1.894 2.32 3.121 2.32 1.226 0 2.265-0.773 3.117-2.32z" inkscape:connector-curvature="0"/>
      <path id="path68" style="fill-rule:evenodd;fill:#837646" d="m54 109.08c1.867 4.613 4.121 6.918 6.762 6.918 2.664 0 4.933-2.305 6.797-6.918 1.867-4.586 2.8-10.148 2.8-16.68 0-4.32-0.437-8.32-1.32-12h-16.559c-0.878 3.68-1.32 7.68-1.32 12 0 6.504 0.945 12.067 2.84 16.68z" inkscape:connector-curvature="0"/>
      <path id="path70" style="fill-rule:evenodd;fill:#837646" d="m84.762 87.6c0-1.493-0.231-2.895-0.684-4.2-0.453-1.254-1.066-2.254-1.84-3h-5.359c-0.746 0.746-1.348 1.746-1.801 3-0.48 1.305-0.719 2.707-0.719 4.2 0 2.32 0.508 4.292 1.52 5.917 1.016 1.657 2.242 2.481 3.68 2.481 1.441 0 2.668-0.824 3.679-2.481 1.016-1.625 1.524-3.597 1.524-5.917z" inkscape:connector-curvature="0"/>
      <path id="path72" style="fill-rule:evenodd;fill:#837646" d="m101.28 140.72c1.414 2.718 3.106 4.078 5.078 4.078 0.774 0 1.481-0.199 2.121-0.598l0.079-17.32h-0.36l0.082-9.563c-0.64-0.343-1.281-0.515-1.922-0.515-1.972 0-3.664 1.371-5.078 4.117-1.414 2.719-2.121 6.015-2.121 9.883 0 3.863 0.707 7.172 2.121 9.918z" inkscape:connector-curvature="0"/>
      <path id="path74" style="fill-rule:evenodd;fill:#837646" d="m89.84 340.6c1.254 2.265 2.762 3.398 4.519 3.398 1.762 0 3.266-1.133 4.52-3.398 1.254-2.266 1.883-5 1.883-8.2 0-3.199-0.629-5.933-1.883-8.199-1.254-2.269-2.758-3.402-4.52-3.402-1.757 0-3.265 1.133-4.519 3.402-1.254 2.266-1.879 5-1.879 8.199 0 3.2 0.625 5.934 1.879 8.2z" inkscape:connector-curvature="0"/>
      <path id="path76" style="fill-rule:evenodd;fill:#837646" d="m71.961 409.6c2.879 0 5.332-1.907 7.359-5.719 2.028-3.84 3.039-8.469 3.039-13.883s-1.011-10.027-3.039-13.84c-2.027-3.84-4.48-5.758-7.359-5.758-2.883 0-5.336 1.918-7.359 5.758-2.028 3.817-3.043 8.426-3.043 13.84s1.015 10.043 3.043 13.883c2.023 3.812 4.476 5.719 7.359 5.719z" inkscape:connector-curvature="0"/>
      <path id="path78" style="fill-rule:evenodd;fill:#837646" d="m105.72 378.16c0.613 2.453 1.469 4.481 2.558 6.082l-0.078-28.359c-1.066 1.597-1.894 3.613-2.48 6.039-0.641 2.508-0.961 5.199-0.961 8.082 0.004 2.902 0.32 5.625 0.961 8.156z" inkscape:connector-curvature="0"/>
      <path id="path80" style="fill-rule:evenodd;fill:#837646" d="m69.121 219.16c2.426-4.851 3.641-10.707 3.641-17.558 0-6.852-1.215-12.692-3.641-17.52-2.426-4.852-5.348-7.281-8.762-7.281s-6.332 2.426-8.757 7.281c-2.43 4.828-3.641 10.668-3.641 17.52 0 6.851 1.211 12.707 3.641 17.558 2.425 4.828 5.343 7.242 8.757 7.242s6.336-2.414 8.762-7.242z" inkscape:connector-curvature="0"/>
      <g id="g82">
        <g id="g84" clip-path="url(#clipPath86)">
          <g id="g90" transform="matrix(.8 0 0 -.8 -4.8153e-7 477.28)">
            <g id="g128" mask="url(#mask120)">
              <path id="path152" style="fill-rule:evenodd;fill:url(#linearGradient130)" d="m110 425.96c-0.801-4.828-1.281-9.359-1.441-13.602-0.504-11.304-0.532-96.535-0.079-255.68h0.079v-29.797h-0.36c0-6.535 0.121-12.563 0.36-18.082 0.32-8.293 1.785-17.758 4.402-28.399h-72.481c2.586 10.371 4.067 19.84 4.438 28.399 0.187 4.375 0.309 10.402 0.359 18.082h-0.359v29.797h0.082c0.453 158.48 0.426 243.71-0.082 255.68-0.133 3.922-0.641 8.641-1.52 14.16 7.414-0.05 29.614-0.238 66.602-0.558z" inkscape:connector-curvature="0"/>
            </g>
          </g>
        </g>
      </g>
      <path id="path154" style="fill-rule:evenodd;fill:#5d5021" d="m13.602 26.119c-0.614 1.359-0.895 2.32-0.84 2.883l2.718 10.515c4.692-2.664 8.227-4.625 10.598-5.878 16.508-4.801 33.254-8.227 50.242-10.282 16.938 2.059 33.68 5.481 50.239 10.282 1.816 0.961 5.347 2.918 10.601 5.878l3.059-8.917c-0.051-0.051-0.34-1.102-0.86-3.161-1.304-3.039-3.574-5.839-6.8-8.398-10.66-8.43-29.42-12.641-56.24-12.641-26.828 0-45.519 3.957-56.082 11.879-3.199 2.399-5.41 5.012-6.636 7.84z" inkscape:connector-curvature="0"/>
      <path id="path156" style="fill-rule:evenodd;fill:#816c30" d="m27.32 27.998c-4 2.082-7.105 4.387-9.32 6.922-1.68 1.918-2.52 3.453-2.52 4.597-0.027 1.602 2.133 2.961 6.481 4.083 4.348 0.8 6.519 1.214 6.519 1.238v-5.719c1.68-1.973 4.918-4.094 9.719-6.359 9.762-4.559 22.52-6.985 38.281-7.282h0.2c15.761 0.321 28.508 2.774 38.242 7.36 2.957 1.387 5.48 2.91 7.558 4.562 1.442 1.305 2.161 1.918 2.161 1.84v5.68c2.187-0.266 4.359-0.668 6.519-1.199 4.348-1.121 6.52-2.481 6.52-4.082 0-1.172-0.758-2.707-2.282-4.598-2.05-2.563-5-4.883-8.839-6.961-11.149-6.105-27.575-9.16-49.282-9.16-21.703 0-38.355 3.027-49.957 9.078z" inkscape:connector-curvature="0"/>
      <path id="path158" style="fill-rule:evenodd;fill:#5d5021" d="m26.84 30.357c-3.145 1.895-5.559 3.961-7.238 6.203-0.856 1.094-1.375 1.957-1.563 2.598l2.121 5.762c1.442 3.867 3.348 10.387 5.719 19.558l8.719-3.8c14.136-2.504 27.867-4.559 41.203-6.161 13.25 1.575 26.984 3.629 41.199 6.161l8.719 3.8c2.402-9.171 4.308-15.691 5.719-19.558l2.16-5.762c0 0.082-0.52-0.785-1.559-2.598-1.707-2.242-4.133-4.308-7.281-6.203-10.215-6.156-26-9.398-47.36-9.718h-3.16c-21.359 0.32-37.16 3.562-47.398 9.718z" inkscape:connector-curvature="0"/>
      <path id="path160" style="fill-rule:evenodd;fill:#816c30" d="m36.602 70.08v-4.641c1.359-1.464 4.023-2.961 8-4.48 7.945-3.067 18.398-4.641 31.359-4.719h0.16c12.957 0.102 23.414 1.695 31.359 4.758 2.454 0.934 4.52 1.977 6.2 3.121 1.175 0.906 1.761 1.348 1.761 1.32v4.68c1.786-0.426 3.571-0.961 5.36-1.602 3.574-1.332 5.359-2.664 5.359-4 0-0.878-0.867-2-2.601-3.359-2.079-1.601-4.907-3.078-8.481-4.441-9.758-3.731-22.586-5.692-38.48-5.879h-1.157c-15.894 0.187-28.722 2.133-38.48 5.84-3.574 1.386-6.402 2.879-8.481 4.48-1.734 1.332-2.601 2.442-2.601 3.32 0 1.332 1.785 2.668 5.359 4l5.364 1.602z" inkscape:connector-curvature="0"/>
      <path id="path162" style="fill-rule:evenodd;fill:#5d5021" d="m35.48 88.76 7.161-2.602 33.839-3.957 33.801 3.957 7.16 2.602c1.973-7.493 3.547-12.813 4.719-15.961l1.762-4.758-1.281-2c-1.36-1.629-3.35-3.121-5.96-4.481-8.38-4.293-21.348-6.441-38.918-6.441h-2.602c-17.574 0-30.535 2.148-38.883 6.441-4.156 2.161-6.57 4.321-7.238 6.481l1.762 4.758c1.172 3.148 2.734 8.468 4.679 15.961z" inkscape:connector-curvature="0"/>
      <path id="path164" style="fill-rule:evenodd;fill:#816c30" d="m44.602 83.119c-6.082 1.922-9.122 3.801-9.122 5.641 0 1.066 1.465 2.215 4.399 3.441l4.402 1.559v-3.719c1.117-1.094 3.305-2.176 6.559-3.242 6.508-2.16 15.094-3.239 25.762-3.239h0.117c10.64 0 19.215 1.079 25.722 3.239 2.024 0.668 3.731 1.414 5.118 2.242l1.441 1v3.719c1.465-0.399 2.934-0.918 4.398-1.559 2.934-1.226 4.403-2.375 4.403-3.441 0-1.84-3.039-3.719-9.121-5.641-7.868-2.504-18.387-3.785-31.559-3.84h-0.961c-13.172 0.055-23.695 1.336-31.558 3.84z" inkscape:connector-curvature="0"/>
      <g id="g166">
        <g id="g168" clip-path="url(#clipPath170)">
          <g id="g174" transform="matrix(.8 0 0 -.8 -4.8153e-7 477.28)">
            <g id="g198" mask="url(#mask190)">
              <path id="path206" style="fill-rule:evenodd;fill:url(#linearGradient200)" d="m35.48 88.76c0 1.066 1.465 2.215 4.399 3.441l4.402 1.559v-3.719c1.117-1.094 3.305-2.176 6.559-3.242 6.508-2.16 15.094-3.239 25.762-3.239h0.117c10.64 0 19.215 1.079 25.722 3.239 2.024 0.668 3.731 1.414 5.118 2.242l1.441 1v3.719c1.465-0.399 2.934-0.918 4.398-1.559 2.934-1.226 4.403-2.375 4.403-3.441 0-0.211-0.055-0.426-0.16-0.641 1.89-7.172 3.398-12.277 4.519-15.316l1.762-4.762-0.363-0.762c1.734-0.929 2.601-1.851 2.601-2.758 0-0.265-0.082-0.535-0.238-0.8 2.609-9.625 4.449-15.895 5.516-18.801l0.56-1.438c3.785-1.066 5.68-2.347 5.68-3.84 0-0.214-0.067-0.562-0.2-1.042l2.719-8c-0.078-1.227-0.535-2.641-1.359-4.239-1.547-3.015-4.067-5.773-7.563-8.281-10.91-7.785-29.22-11.68-54.96-11.68-25.656 0-43.894 3.641-54.722 10.918-5.493 3.684-8.438 7.574-8.84 11.684l2.722 10.519c-0.027 1.227 1.282 2.321 3.918 3.282l0.762 2.117c1.442 3.867 3.348 10.387 5.719 19.558 0 1.043 1.109 2.094 3.32 3.161l-0.16 0.402 1.762 4.758c1.172 3.148 2.734 8.468 4.679 15.961z" inkscape:connector-curvature="0"/>
            </g>
          </g>
        </g>
      </g>
      <path id="path208" style="fill-rule:evenodd;fill:#51451b" d="m116.28 424.6 9.442 3.199c-1.016-8.692-1.535-14.625-1.563-17.801v-4.438l-1.84-1.64c-1.758-1.309-4.039-2.508-6.84-3.602-8.984-3.492-21.414-5.238-37.281-5.238h-2.359c-16.133 0-28.813 1.785-38.039 5.359-4.641 1.786-7.653 3.575-9.039 5.36l-0.121 4.48c-0.082 3.254-0.719 9.332-1.922 18.238l9.84-3.398 40.242-5 39.48 4.481z" inkscape:connector-curvature="0"/>
      <g id="g210">
        <g id="g212" clip-path="url(#clipPath214)">
          <g id="g218" transform="matrix(.8 0 0 -.8 -4.8153e-7 477.28)">
            <g id="g242" mask="url(#mask234)">
              <path id="path250" style="fill-rule:evenodd;fill:url(#linearGradient244)" d="m116.28 424.6 9.442 3.199c-1.016-8.692-1.535-14.625-1.563-17.801v-4.438l-1.84-1.64c-1.758-1.309-4.039-2.508-6.84-3.602-8.984-3.492-21.414-5.238-37.281-5.238h-2.359c-16.133 0-28.813 1.785-38.039 5.359-4.641 1.786-7.653 3.575-9.039 5.36l-0.121 4.48c-0.082 3.254-0.719 9.332-1.922 18.238l9.84-3.398 40.242-5 39.48 4.481z" inkscape:connector-curvature="0"/>
            </g>
          </g>
        </g>
      </g>
      <path id="path252" style="fill-rule:evenodd;fill:#564a1e" d="m137.84 432.2-0.039-5.402-2.36-2c-2.269-1.625-5.203-3.106-8.8-4.442-11.52-4.293-27.469-6.437-47.84-6.437h-3.039c-20.723 0-37.028 2.187-48.922 6.558-5.945 2.188-9.813 4.375-11.602 6.563l-0.16 5.519c-0.105 4-0.93 11.454-2.476 22.36l12.679-4.16 51.719-6.121 50.68 5.48 12.16 3.922c-1.309-10.668-1.973-17.949-2-21.84z" inkscape:connector-curvature="0"/>
      <g id="g254">
        <g id="g256" clip-path="url(#clipPath258)">
          <g id="g262" transform="matrix(.8 0 0 -.8 -4.8153e-7 477.28)">
            <g id="g286" mask="url(#mask278)">
              <path id="path294" style="fill-rule:evenodd;fill:url(#linearGradient288)" d="m137.84 432.2-0.039-5.402-2.36-2c-2.269-1.625-5.203-3.106-8.8-4.442-11.52-4.293-27.469-6.437-47.84-6.437h-3.039c-20.723 0-37.028 2.187-48.922 6.558-5.945 2.188-9.813 4.375-11.602 6.563l-0.16 5.519c-0.105 4-0.93 11.454-2.476 22.36l12.679-4.16 51.719-6.121 50.68 5.48 12.16 3.922c-1.309-10.668-1.973-17.949-2-21.84z" inkscape:connector-curvature="0"/>
            </g>
          </g>
        </g>
      </g>
      <path id="path296" style="fill-rule:evenodd;fill:#5d5021" d="m152.4 477.28c0-1.972-0.41-4.988-1.238-9.039l-1.238-5.441c0 0.242-0.363-0.801-1.082-3.121-1.492-3.039-4.149-5.84-7.961-8.399-12.481-8.426-34.453-12.64-65.918-12.64-31.441 0-53.336 3.961-65.684 11.878-3.757 2.403-6.371 5.016-7.839 7.84-0.692 1.364-1.012 2.321-0.958 2.883l-0.48 16.04c1.438-0.719 4.121-1.719 8.039-3 4.055-1.332 6.734-2.304 8.039-2.922 3.309-0.824 7.602-2.039 12.883-3.636 5.094-1.547 8.984-2.641 11.68-3.282 9.281-2.214 20.718-3.32 34.32-3.32 13.598 0 25.039 1.106 34.316 3.32 2.696 0.641 6.602 1.735 11.723 3.282 5.254 1.597 9.547 2.812 12.879 3.636 1.332 0.618 4.426 1.59 9.281 2.922 4.742 1.305 7.824 2.305 9.238 3z" inkscape:connector-curvature="0"/>
      <g id="g298">
        <g id="g300" clip-path="url(#clipPath302)">
          <g id="g306" transform="matrix(.8 0 0 -.8 -4.8153e-7 477.28)">
            <g id="g330" mask="url(#mask322)">
              <path id="path338" style="fill-rule:evenodd;fill:url(#linearGradient332)" d="m152.4 477.28c0-1.972-0.41-4.988-1.238-9.039l-1.238-5.441c0 0.242-0.363-0.801-1.082-3.121-1.492-3.039-4.149-5.84-7.961-8.399-12.481-8.426-34.453-12.64-65.918-12.64-31.441 0-53.336 3.961-65.684 11.878-3.757 2.403-6.371 5.016-7.839 7.84-0.692 1.364-1.012 2.321-0.958 2.883l-0.48 16.04c1.438-0.719 4.121-1.719 8.039-3 4.055-1.332 6.734-2.304 8.039-2.922 3.309-0.824 7.602-2.039 12.883-3.636 5.094-1.547 8.984-2.641 11.68-3.282 9.281-2.214 20.718-3.32 34.32-3.32 13.598 0 25.039 1.106 34.316 3.32 2.696 0.641 6.602 1.735 11.723 3.282 5.254 1.597 9.547 2.812 12.879 3.636 1.332 0.618 4.426 1.59 9.281 2.922 4.742 1.305 7.824 2.305 9.238 3z" inkscape:connector-curvature="0"/>
            </g>
          </g>
        </g>
      </g>
      <g id="g340">
        <g id="g342" clip-path="url(#clipPath344)">
          <g id="g348" transform="matrix(.8 0 0 .8 -4.8153e-7 -51.201)">
            <g id="g374" mask="url(#mask366)">
              <path id="path384" style="fill-rule:evenodd;fill:url(#radialGradient376)" d="m133.88 471.36c1.336 0.618 4.426 1.59 9.281 2.922 4.746 1.305 7.828 2.305 9.242 3 0-1.972-0.414-4.988-1.242-9.039l-1.238-5.441c0-0.055-0.055-0.282-0.16-0.68-0.215-0.906-0.574-1.84-1.082-2.801-1.758-3.304-4.852-6.304-9.282-9-1.011-9.172-1.531-15.215-1.558-18.117l-0.039-5.402-2.68-2.239c-2.617-1.789-6.027-3.402-10.242-4.839-0.453-4.43-0.691-7.668-0.719-9.719v-4.442l-3.199-2.558c-3.199-1.977-7.414-3.602-12.641-4.883l-0.121-42.039c-0.078-56.105 0.016-122.58 0.281-199.4h0.082v-29.797h-0.363l0.363-18.082c0.184-4.559 0.758-9.692 1.719-15.399 5.012-1.652 7.52-3.199 7.52-4.64l-0.039-0.321-0.121-0.32 1.597-5.918v-0.043l0.321-1.078 0.043-0.039 0.957-3.281 0.043-0.203 0.277-0.957 0.043-0.083 0.64-2.078 0.278-0.761 0.039-0.161 2.043-5.48-0.36-0.758 1-0.601 0.079-0.039 0.359-0.282 0.082-0.039 0.32-0.32h0.039l0.282-0.359 0.039-0.039 0.242-0.403 0.078-0.238 0.043-0.082 0.039-0.36-0.039-0.359-0.043-0.039-0.16-0.402c1.176-4.481 2.336-8.641 3.48-12.481v-0.039l0.243-0.758v-0.043l0.718-2.238 0.039-0.082 0.16-0.559 0.083-0.199 0.359-1.082 0.039-0.199 0.16-0.398 0.039-0.161 0.641-1.761 0.121-0.239c1.226-0.347 2.254-0.722 3.078-1.121l0.359-0.16 0.121-0.082 0.442-0.238 0.719-0.52 0.441-0.441 0.117-0.16 0.082-0.156 0.117-0.161 0.122-0.363 0.039-0.078 0.043-0.359-0.043-0.442-0.039-0.039-0.122-0.558 2.719-8v-0.321l-0.039-0.039v-0.082l-0.121-0.68-0.039-0.039-0.039-0.238-0.039-0.043-0.043-0.238-0.039-0.082-0.082-0.238v-0.083l-0.438-1.16-0.16-0.281-0.039-0.117-0.16-0.32-0.043-0.122-0.199-0.359-0.039-0.117-0.52-0.84-0.039-0.082-0.281-0.402-0.043-0.117-0.32-0.442-0.039-0.039-0.36-0.519c-0.64-0.883-1.48-1.817-2.519-2.801l-0.598-0.559-0.121-0.082-0.563-0.48-0.117-0.121-0.558-0.477-0.204-0.121-0.757-0.602-2.321-1.558-0.918-0.559-3.16-1.683-5.441-2.239c-1.442-0.535-2.934-1.011-4.481-1.441l-8.76-2.04-16.56-2c-0.641-0.055-1.121-0.082-1.438-0.082l-8.402-0.317-18.64 0.438c-0.586 0.055-1.04 0.082-1.36 0.082l-1.082 0.121c-0.289 0-0.73 0.023-1.316 0.078l-8.84 1.043-6.481 1.156-3.402 0.801c-1.625 0.399-3.199 0.84-4.719 1.32h-0.039l-1.402 0.481-0.156 0.039-8.082 3.48-2.039 1.161-0.723 0.48-0.078 0.082-0.801 0.52c-2.559 1.785-4.531 3.707-5.918 5.757l-0.602 0.961c-0.933 1.52-1.507 3.039-1.718 4.559l1.16 4.48v0.039l0.199 0.84 0.039 0.121 1.32 5.039 0.04 0.485 0.042 0.117 0.2 0.359v0.039l0.316 0.442 0.082 0.078 0.402 0.32 0.04 0.043 0.558 0.399h0.039l0.641 0.359c0.402 0.188 0.922 0.399 1.562 0.641l0.758 2.117c1.442 3.867 3.348 10.387 5.719 19.562l0.082 0.399 0.199 0.441v0.039l0.281 0.36 0.399 0.441h0.039l0.441 0.359 0.082 0.083 0.477 0.316h0.043l1.277 0.723-0.117 0.277v0.043l-0.043 0.078 1.762 4.762c1.172 3.148 2.734 8.465 4.679 15.957 0 1.469 2.575 3.027 7.719 4.683 0.961 5.707 1.535 10.825 1.723 15.36 0.183 4.375 0.305 10.398 0.359 18.078h-0.359v29.801h0.078c0.188 60.988 0.281 116.7 0.281 167.12v15.039c0 27.629-0.054 47.402-0.16 59.32-5.359 1.309-9.695 2.973-13 5-1.652 1.016-2.773 1.895-3.359 2.641l-0.121 4.48c-0.028 1.414-0.321 4.707-0.879 9.879-4.028 1.414-7.321 2.988-9.883 4.719-1.277 0.855-2.16 1.574-2.641 2.16l-0.16 5.52c-0.051 2.32-0.57 7.523-1.558 15.601-5.547 2.695-9.399 5.801-11.559 9.32-1.039 1.707-1.535 2.961-1.481 3.762l-0.48 16.04c1.441-0.722 4.121-1.722 8.039-3 4.055-1.336 6.734-2.308 8.043-2.922 3.305-0.824 7.598-2.039 12.879-3.64 5.094-1.543 8.988-2.637 11.68-3.278 9.281-2.214 20.722-3.32 34.32-3.32 13.601 0 25.039 1.106 34.32 3.32 2.692 0.641 6.598 1.735 11.719 3.278 5.254 1.601 9.547 2.816 12.879 3.64z" inkscape:connector-curvature="0"/>
            </g>
          </g>
        </g>
      </g>
    </g>
  </g>
<metadata><rdf:RDF><cc:Work><dc:format>image/svg+xml</dc:format><dc:type rdf:resource="http://purl.org/dc/dcmitype/StillImage"/><cc:license rdf:resource="http://creativecommons.org/licenses/publicdomain/"/><dc:publisher><cc:Agent rdf:about="http://openclipart.org/"><dc:title>Openclipart</dc:title></cc:Agent></dc:publisher></cc:Work><cc:License rdf:about="http://creativecommons.org/licenses/publicdomain/"><cc:permits rdf:resource="http://creativecommons.org/ns#Reproduction"/><cc:permits rdf:resource="http://creativecommons.org/ns#Distribution"/><cc:permits rdf:resource="http://creativecommons.org/ns#DerivativeWorks"/></cc:License></rdf:RDF></metadata></svg>
